<?xml version="1.0" encoding="UTF-8"?>
<svg id="Layer_1" data-name="Layer 1" xmlns="http://www.w3.org/2000/svg" width="1024" height="1024" viewBox="0 0 1024 1024">
  <path d="M95.34,533.56s-1.58-199.45,169.27-305.55c60.99-37.87,143.95-63.85,256.79-64.61,428.96-2.9,403.95,373.18,405.42,370.24,1.47-2.94,203.16,431.64-396.69,450.58C-41.33,1002.26,55.67,561.46,95.34,533.56Z" fill="#69ad64" stroke="#030102" stroke-linecap="round" stroke-linejoin="round" stroke-width="2"/>
  <path d="M799.21,47.59s-36.16,71.54-28.38,174.6l-98.56-43.28S731.64-.9,799.21,47.59Z" fill="#f3ebe2" stroke="#030102" stroke-linejoin="round" stroke-width="10"/>
  <path d="M239.2,47.53s9.04,17.89,17.1,48.66c1.43,5.46,5.82,22.24,8.88,45.1,2.68,20.01,4.76,47.6,2.36,80.84,32.86-14.42,65.71-28.84,98.57-43.26-7.64-25.34-17.07-45.27-24.9-59.57-15.28-27.91-44.87-81.95-80.39-80.01-9.72.53-17.32,5.12-21.62,8.24Z" fill="#f3ebe2" stroke="#030102" stroke-linejoin="round" stroke-width="10"/>
  <g>
    <ellipse cx="347.32" cy="487.67" rx="42.6" ry="63.17"/>
    <ellipse cx="365.01" cy="465.64" rx="8.08" ry="11.02" fill="#fff"/>
  </g>
  <g>
    <ellipse cx="699.48" cy="487.71" rx="42.6" ry="63.17"/>
    <ellipse cx="721.94" cy="465.67" rx="8.08" ry="11.02" fill="#fff"/>
  </g>
  <path d="M105.51,807.04s-19.87-105.84,177.9-117.39c0,0,25.9,57.8,180.04,60.61,29.61.54,62.3,3.26,102.24-1.44,0,0,29.62.95,73.98-3.71,31.76-3.34,64.78-6.18,128.91-29.87,0,0,208.08-33.64,168.4,73.23,0,0-10.44,95.32-160.11,152.15-47.58,18.06-114.58,26.01-192.85,33.84-104.48,10.46-222.74,2.33-292.34-19.13-146.56-45.19-186.18-148.3-186.18-148.3Z" fill="#fff"/>
  <path d="M95.34,533.56s-1.58-199.45,169.27-305.55c60.99-37.87,143.95-63.85,256.79-64.61,428.96-2.9,403.95,373.18,405.42,370.24,1.47-2.94,203.16,431.64-396.69,450.58C-41.33,1002.26,55.67,561.46,95.34,533.56Z" fill="none" stroke="#030102" stroke-linecap="round" stroke-linejoin="round" stroke-width="12"/>
  <ellipse cx="450.91" cy="636.07" rx="18.18" ry="34.16" transform="translate(-327.54 679.85) rotate(-57.89)"/>
  <ellipse cx="596.48" cy="633.69" rx="34.16" ry="18.18" transform="translate(-268.96 542.22) rotate(-40.7)"/>
  <path d="M268.42,168.7s19.72-64.25,74.57-43.67" fill="#f3ebe2" stroke="#030102" stroke-linecap="round" stroke-linejoin="round" stroke-width="8"/>
  <path d="M261.46,103.33s13.89-31.89,52.54-21.67" fill="none" stroke="#030102" stroke-linecap="round" stroke-linejoin="round" stroke-width="8"/>
  <path d="M769.54,168.73s-19.7-64.26-74.56-43.69" fill="#f3ebe2" stroke="#030102" stroke-linecap="round" stroke-linejoin="round" stroke-width="8"/>
  <path d="M776.51,103.36s-13.88-31.89-52.53-21.68" fill="none" stroke="#030102" stroke-linecap="round" stroke-linejoin="round" stroke-width="8"/>
  <path d="M283.41,689.65s101.9,124.84,485.18,25.59" fill="none" stroke="#000" stroke-linecap="round" stroke-miterlimit="10" stroke-width="12"/>
  <path d="M336.96,730.94s16.15,95.77,54.65,103.28c0,0,27.11-10.58,40.1-82.73l-94.75-20.55Z" fill="#fff0e1" stroke="#000" stroke-linecap="round" stroke-linejoin="round" stroke-width="12"/>
  <path d="M730.62,725.47s-17,95.63-55.57,102.79c0,0-27.01-10.82-39.37-83.08l94.93-19.71Z" fill="#fff0e1" stroke="#000" stroke-linecap="round" stroke-linejoin="round" stroke-width="12"/>
  <ellipse cx="398.07" cy="275.87" rx="43.28" ry="23.99" transform="translate(-17.26 26.74) rotate(-3.77)" fill="#508a49"/>
  <path d="M170.64,314.25s153.92-72.98,362.44-71.55c101.42.7,227.42,39.32,332.5,73.46,0,0,35.57,66.17,47,106.61,0,0-189.28-51.49-380.52-52.71-159.3-1.02-322.62,29.82-419.79,62.04l58.37-117.84Z" fill="#fff" stroke="#000" stroke-linecap="round" stroke-linejoin="round" stroke-width="11"/>
  <circle cx="526" cy="310.61" r="47.12" fill="#ed2f2f"/>
  <g>
    <path d="M919.97,599.55c0-21.59-17.51-39.1-39.1-39.1-2.13,0-4.22.18-6.25.5-4.94-15.94-19.79-27.51-37.35-27.51-18.89,0-34.66,13.4-38.3,31.22-.92-.06-1.84-.11-2.78-.11-21.59,0-39.1,17.51-39.1,39.1,0,14.58,7.99,27.29,19.82,34.01-1.75,4.44-2.72,9.27-2.72,14.32,0,21.59,17.51,39.1,39.1,39.1,10.36,0,19.77-4.03,26.76-10.61,6.83,5.84,15.7,9.38,25.39,9.38,21.59,0,39.1-17.51,39.1-39.1,0-6.24-1.47-12.14-4.07-17.37,11.66-6.77,19.51-19.38,19.51-33.83ZM843.52,611.13c.62,2,1.4,3.94,2.33,5.79-2.59,1.51-5,3.3-7.17,5.34-1.89-1.62-3.93-3.05-6.11-4.29.82-2.07,1.47-4.22,1.92-6.44.92.06,1.84.11,2.78.11,2.13,0,4.22-.18,6.25-.5Z" fill="#ffc5e9" stroke="#000" stroke-miterlimit="10" stroke-width="12"/>
    <circle cx="838.53" cy="618.29" r="24.33" fill="#feffe1"/>
  </g>
</svg>