<?xml version="1.0" encoding="UTF-8"?>
<svg id="Layer_1" data-name="Layer 1" xmlns="http://www.w3.org/2000/svg" width="1024" height="1024" viewBox="0 0 1024 1024">
  <g>
    <path d="M93.67,529.46s-1.58-199.45,169.27-305.55c60.99-37.87,143.95-63.85,256.79-64.61,428.96-2.9,403.95,373.18,405.42,370.24,1.47-2.94,203.16,431.64-396.69,450.58C-43,998.16,54,557.37,93.67,529.46Z" fill="#69ad64" stroke="#030102" stroke-linecap="round" stroke-linejoin="round" stroke-width="2"/>
    <path d="M797.54,43.49s-36.16,71.54-28.38,174.6l-98.56-43.28s59.37-179.8,126.94-131.32Z" fill="#f3ebe2" stroke="#030102" stroke-linejoin="round" stroke-width="10"/>
    <path d="M237.53,43.43s9.04,17.89,17.1,48.66c1.43,5.46,5.82,22.24,8.88,45.1,2.68,20.01,4.76,47.6,2.36,80.84,32.86-14.42,65.71-28.84,98.57-43.26-7.64-25.34-17.07-45.27-24.9-59.57-15.28-27.91-44.87-81.95-80.39-80.01-9.72.53-17.32,5.12-21.62,8.24Z" fill="#f3ebe2" stroke="#030102" stroke-linejoin="round" stroke-width="10"/>
    <g>
      <ellipse cx="345.65" cy="483.58" rx="42.6" ry="63.17"/>
      <ellipse cx="363.34" cy="461.54" rx="8.08" ry="11.02" fill="#fff"/>
    </g>
    <g>
      <ellipse cx="697.81" cy="483.61" rx="42.6" ry="63.17"/>
      <ellipse cx="720.27" cy="461.58" rx="8.08" ry="11.02" fill="#fff"/>
    </g>
    <path d="M103.84,802.94s-19.87-105.84,177.9-117.39c0,0,25.9,57.8,180.04,60.61,29.61.54,62.3,3.26,102.24-1.44,0,0,29.62.95,73.98-3.71,31.76-3.34,64.78-6.18,128.91-29.87,0,0,208.08-33.64,168.4,73.23,0,0-10.44,95.32-160.11,152.15-47.58,18.06-114.58,26.01-192.85,33.84-104.48,10.46-222.74,2.33-292.34-19.13-146.56-45.19-186.18-148.3-186.18-148.3Z" fill="#fff"/>
    <path d="M93.67,529.46s-1.58-199.45,169.27-305.55c60.99-37.87,143.95-63.85,256.79-64.61,428.96-2.9,403.95,373.18,405.42,370.24,1.47-2.94,203.16,431.64-396.69,450.58C-43,998.16,54,557.37,93.67,529.46Z" fill="none" stroke="#030102" stroke-linecap="round" stroke-linejoin="round" stroke-width="12"/>
    <ellipse cx="449.24" cy="631.97" rx="18.18" ry="34.16" transform="translate(-324.85 676.52) rotate(-57.89)"/>
    <ellipse cx="594.81" cy="629.59" rx="34.16" ry="18.18" transform="translate(-266.69 540.13) rotate(-40.7)"/>
    <path d="M266.74,164.6s19.72-64.25,74.57-43.67" fill="#f3ebe2" stroke="#030102" stroke-linecap="round" stroke-linejoin="round" stroke-width="8"/>
    <path d="M259.79,99.23s13.89-31.89,52.54-21.67" fill="none" stroke="#030102" stroke-linecap="round" stroke-linejoin="round" stroke-width="8"/>
    <path d="M767.86,164.63s-19.7-64.26-74.56-43.69" fill="#f3ebe2" stroke="#030102" stroke-linecap="round" stroke-linejoin="round" stroke-width="8"/>
    <path d="M774.83,99.26s-13.88-31.89-52.53-21.68" fill="none" stroke="#030102" stroke-linecap="round" stroke-linejoin="round" stroke-width="8"/>
    <path d="M281.74,685.55s101.9,124.84,485.18,25.59" fill="none" stroke="#000" stroke-linecap="round" stroke-miterlimit="10" stroke-width="12"/>
    <path d="M335.29,726.84s16.15,95.77,54.65,103.28c0,0,27.11-10.58,40.1-82.73l-94.75-20.55Z" fill="#fff0e1" stroke="#000" stroke-linecap="round" stroke-linejoin="round" stroke-width="12"/>
    <path d="M728.95,721.37s-17,95.63-55.57,102.79c0,0-27.01-10.82-39.37-83.08l94.93-19.71Z" fill="#fff0e1" stroke="#000" stroke-linecap="round" stroke-linejoin="round" stroke-width="12"/>
    <ellipse cx="396.4" cy="271.77" rx="43.28" ry="23.99" transform="translate(-16.99 26.62) rotate(-3.77)" fill="#508a49"/>
    <g>
      <path d="M256.06,668.35c5.39-20.17-5.94-41.23-26.03-47.71-20.74-6.68-42.97,4.72-49.65,25.46-6.68,20.74-28.91,32.14-49.65,25.46-20.09-6.47-31.42-27.54-26.03-47.71-12.05,40.92,10.66,84.21,51.49,97.36,40.84,13.15,84.54-8.74,98.64-49,.22-.64.46-1.27.67-1.92s.38-1.3.57-1.95Z" fill="#0e09ba"/>
      <path d="M204.57,570.99c-40.84-13.15-84.54,8.74-98.64,49-.22.64-.46,1.27-.67,1.92s-.38,1.3-.57,1.95c-5.39,20.17,5.94,41.23,26.03,47.71,20.74,6.68,42.97-4.72,49.65-25.46,6.68-20.74,28.91-32.14,49.65-25.46,20.09,6.47,31.42,27.54,26.03,47.71,12.05-40.92-10.66-84.21-51.49-97.36Z" fill="#dd2f2f"/>
      <circle cx="179.43" cy="644.68" r="77.51" fill="none" stroke="#000" stroke-miterlimit="10" stroke-width="12"/>
    </g>
  </g>
  <path d="M822.44,320.53H189.52c-9.5,0-18.09-5.64-21.87-14.36l-27.78-64.12c-6.82-15.74,4.72-33.31,21.87-33.31h700.51c18.69,0,30.11,20.53,20.25,36.41l-39.81,64.12c-4.35,7-12.01,11.26-20.25,11.26Z" stroke="#030102" stroke-linecap="round" stroke-linejoin="round" stroke-width="12"/>
  <ellipse cx="508.26" cy="183.61" rx="251.32" ry="114.9" stroke="#030102" stroke-linecap="round" stroke-linejoin="round" stroke-width="12"/>
</svg>