<?xml version="1.0" encoding="UTF-8"?>
<svg id="Layer_1" data-name="Layer 1" xmlns="http://www.w3.org/2000/svg" width="1024" height="1024" viewBox="0 0 1024 1024">
  <path d="M488.56,375.98l153.22-58.01c2.73-1.03,5.95-2.23,9.54-3.55,57.18-21.08,110.03-52.46,155.95-92.52l27.79-24.24s-66.47,85.16,0,137.15c0,0-93.04-28.38-131.21,76.16,0,0-104.22-21.51-132.48,53.51l-82.82-88.49Z" fill="#69ad64" stroke="#030102" stroke-linecap="round" stroke-linejoin="round" stroke-width="8"/>
  <g>
    <path d="M110.45,272.56s-14.53-78.72,45.59-132.56c21.46-19.22,52.44-35.27,96.98-43.44,169.33-31.05,185.67,119.32,186.05,118.06.38-1.26,110.39,156.42-125.36,205.74-224.59,46.98-216.99-133.99-203.26-147.79Z" fill="#69ad64" stroke="#030102" stroke-linecap="round" stroke-linejoin="round" stroke-width="2"/>
    <path d="M354.75,31.42s-9.3,30.8.96,70.98l-41.97-10.23s10.93-75.2,41.01-60.75Z" fill="#f3ebe2" stroke="#030102" stroke-linejoin="round" stroke-width="8"/>
    <path d="M133.42,70.45s4.82,6.44,10.15,18.04c.95,2.06,3.85,8.39,6.66,17.2,2.45,7.72,5.2,18.48,6.57,31.79l35.94-23.97c-4.79-9.48-9.9-16.7-13.99-21.81-7.99-9.96-23.45-29.26-37.35-26.02-3.8.89-6.49,3.23-7.97,4.76Z" fill="#f3ebe2" stroke="#030102" stroke-linejoin="round" stroke-width="8"/>
    <g>
      <ellipse cx="206.84" cy="236.86" rx="17.1" ry="25.35" transform="translate(-37.99 39.52) rotate(-10)"/>
      <ellipse cx="212.29" cy="226.92" rx="3.24" ry="4.42" transform="translate(-36.18 40.31) rotate(-10)" fill="#fff"/>
    </g>
    <g>
      <ellipse cx="346.02" cy="212.32" rx="17.1" ry="25.35" transform="translate(-31.61 63.31) rotate(-10)"/>
      <ellipse cx="353.36" cy="202.04" rx="3.24" ry="4.42" transform="translate(-29.72 64.43) rotate(-10)" fill="#fff"/>
    </g>
    <path d="M133.54,379.94s-15.23-40.44,62.12-58.8c0,0,19.75,32.52,115.69,3.7,0,0,21.06,5.75,77.85-27.42,0,0,77.79-27.83,69.56,17.17,0,0,1.55,62.69-124.42,98.14-40.56,11.42-87.87,16.45-116.87,12.82-61.07-7.64-83.92-45.63-83.92-45.63Z" fill="#fff"/>
    <path d="M110.45,272.56s-14.53-78.72,45.59-132.56c21.46-19.22,52.44-35.27,96.98-43.44,169.33-31.05,185.67,119.32,186.05,118.06.38-1.26,110.39,156.42-125.36,205.74-224.59,46.98-216.99-133.99-203.26-147.79Z" fill="none" stroke="#030102" stroke-linecap="round" stroke-linejoin="round" stroke-width="8"/>
    <path d="M334.67,320.1s3.23,14.48,11.24,22.23c0,0,18.81.48,17.99-28.64" fill="#fff0e1" stroke="#000" stroke-miterlimit="10" stroke-width="8"/>
    <path d="M224.09,334.66s5.98,16.67,24.35,25.37c0,0,8.58,3.88,9.1-24.74" fill="#fff0e1" stroke="#000" stroke-miterlimit="10" stroke-width="8"/>
    <path d="M386.53,295.29s-17,16.94-33.84,20.34c-30.8,6.23-82.16,19.09-116.54,19.17-22.01.05-34.95-10.26-38.04-14.09" fill="none" stroke="#000" stroke-linecap="round" stroke-linejoin="round" stroke-width="8"/>
    <ellipse cx="258.13" cy="288.28" rx="7.3" ry="13.71" transform="translate(-106.11 418.93) rotate(-67.89)"/>
    <ellipse cx="315.49" cy="277.19" rx="13.71" ry="7.3" transform="translate(-98.83 345.8) rotate(-50.7)"/>
    <ellipse cx="218.9" cy="136.35" rx="17.37" ry="9.63" transform="translate(-26.16 56.03) rotate(-13.77)" fill="#508a49"/>
    <path d="M153.41,116.3s3.31-26.77,26.43-22.46" fill="#f3ebe2" stroke="#030102" stroke-linecap="round" stroke-linejoin="round" stroke-width="8"/>
    <path d="M146.11,90.95s3.27-13.57,19.25-12.23" fill="none" stroke="#030102" stroke-linecap="round" stroke-linejoin="round" stroke-width="8"/>
    <path d="M351.47,81.37s-12.27-24.02-32.51-12.07" fill="#f3ebe2" stroke="#030102" stroke-linecap="round" stroke-linejoin="round" stroke-width="8"/>
    <path d="M349.66,55.04s-7.71-11.64-22.27-4.91" fill="none" stroke="#030102" stroke-linecap="round" stroke-linejoin="round" stroke-width="8"/>
  </g>
  <path d="M747.88,754.36s72.17-68.2,115.6-68.72c43.43-.52,96.41,19.92,106.28,46.25,0,0-61.86-50.38-143.19,70.19,0,0-84.73,137.56-197.24,126.53,2.64-3.33,51.91-48.71,83.25-94.93,26.03-38.39,35.3-79.32,35.3-79.32Z" fill="#69ad64" stroke="#000" stroke-linejoin="round" stroke-width="8"/>
  <circle cx="430.38" cy="655.84" r="333.64" fill="#fff" stroke="#231f20" stroke-miterlimit="10" stroke-width="4"/>
  <line x1="429.5" y1="322.93" x2="429.5" y2="365.54" fill="none" stroke="#231f20" stroke-miterlimit="10" stroke-width="1.5"/>
  <line x1="95.86" y1="656.57" x2="138.47" y2="656.57" fill="none" stroke="#231f20" stroke-miterlimit="10" stroke-width="8"/>
  <line x1="429.5" y1="990.21" x2="429.5" y2="947.6" fill="none" stroke="#231f20" stroke-miterlimit="10" stroke-width="8"/>
  <line x1="763.15" y1="656.57" x2="720.54" y2="656.57" fill="none" stroke="#231f20" stroke-miterlimit="10" stroke-width="8"/>
  <line x1="429.5" y1="322.93" x2="429.5" y2="365.54" fill="none" stroke="#231f20" stroke-linejoin="round" stroke-width="8"/>
  <g>
    <line x1="400.43" y1="323.47" x2="404.14" y2="365.91" fill="none" stroke="#595a5a" stroke-miterlimit="10" stroke-width="1.5"/>
    <line x1="371.57" y1="327.27" x2="378.97" y2="369.23" fill="none" stroke="#595a5a" stroke-miterlimit="10" stroke-width="1.5"/>
    <line x1="343.15" y1="333.57" x2="354.18" y2="374.72" fill="none" stroke="#595a5a" stroke-miterlimit="10" stroke-width="1.5"/>
    <line x1="315.39" y1="342.32" x2="329.97" y2="382.36" fill="none" stroke="#595a5a" stroke-miterlimit="10" stroke-width="1.5"/>
    <line x1="288.5" y1="353.46" x2="306.51" y2="392.07" fill="none" stroke="#595a5a" stroke-miterlimit="10" stroke-width="1.5"/>
    <line x1="262.68" y1="366.9" x2="283.99" y2="403.8" fill="none" stroke="#595a5a" stroke-miterlimit="10" stroke-width="1.5"/>
    <line x1="238.14" y1="382.54" x2="262.58" y2="417.44" fill="none" stroke="#595a5a" stroke-miterlimit="10" stroke-width="1.5"/>
    <line x1="215.04" y1="400.25" x2="242.43" y2="432.9" fill="none" stroke="#595a5a" stroke-miterlimit="10" stroke-width="1.5"/>
    <line x1="193.58" y1="419.92" x2="223.71" y2="450.05" fill="none" stroke="#595a5a" stroke-miterlimit="10" stroke-width="1.5"/>
    <line x1="173.92" y1="441.38" x2="206.56" y2="468.77" fill="none" stroke="#595a5a" stroke-miterlimit="10" stroke-width="1.5"/>
    <line x1="156.2" y1="464.47" x2="191.11" y2="488.91" fill="none" stroke="#595a5a" stroke-miterlimit="10" stroke-width="1.5"/>
    <line x1="140.56" y1="489.02" x2="177.46" y2="510.32" fill="none" stroke="#595a5a" stroke-miterlimit="10" stroke-width="1.5"/>
    <line x1="127.12" y1="514.84" x2="165.74" y2="532.84" fill="none" stroke="#595a5a" stroke-miterlimit="10" stroke-width="1.5"/>
    <line x1="115.98" y1="541.73" x2="156.02" y2="556.3" fill="none" stroke="#595a5a" stroke-miterlimit="10" stroke-width="1.5"/>
    <line x1="107.23" y1="569.49" x2="148.39" y2="580.51" fill="none" stroke="#595a5a" stroke-miterlimit="10" stroke-width="1.5"/>
    <line x1="100.93" y1="597.9" x2="142.89" y2="605.3" fill="none" stroke="#595a5a" stroke-miterlimit="10" stroke-width="1.5"/>
    <line x1="97.13" y1="626.76" x2="139.58" y2="630.47" fill="none" stroke="#595a5a" stroke-miterlimit="10" stroke-width="1.5"/>
    <line x1="97.13" y1="684.92" x2="139.58" y2="681.2" fill="none" stroke="#595a5a" stroke-miterlimit="10" stroke-width="1.5"/>
    <line x1="100.93" y1="713.77" x2="142.89" y2="706.38" fill="none" stroke="#595a5a" stroke-miterlimit="10" stroke-width="1.5"/>
    <line x1="107.23" y1="742.19" x2="148.39" y2="731.16" fill="none" stroke="#595a5a" stroke-miterlimit="10" stroke-width="1.5"/>
    <line x1="115.98" y1="769.95" x2="156.02" y2="755.38" fill="none" stroke="#595a5a" stroke-miterlimit="10" stroke-width="1.5"/>
    <line x1="127.12" y1="796.84" x2="165.74" y2="778.83" fill="none" stroke="#595a5a" stroke-miterlimit="10" stroke-width="1.5"/>
    <line x1="140.56" y1="822.66" x2="177.46" y2="801.35" fill="none" stroke="#595a5a" stroke-miterlimit="10" stroke-width="1.5"/>
    <line x1="156.2" y1="847.21" x2="191.11" y2="822.77" fill="none" stroke="#595a5a" stroke-miterlimit="10" stroke-width="1.5"/>
    <line x1="173.92" y1="870.3" x2="206.56" y2="842.91" fill="none" stroke="#595a5a" stroke-miterlimit="10" stroke-width="1.5"/>
    <line x1="193.58" y1="891.76" x2="223.71" y2="861.63" fill="none" stroke="#595a5a" stroke-miterlimit="10" stroke-width="1.5"/>
    <line x1="215.04" y1="911.42" x2="242.43" y2="878.78" fill="none" stroke="#595a5a" stroke-miterlimit="10" stroke-width="1.5"/>
    <line x1="238.14" y1="929.14" x2="262.58" y2="894.24" fill="none" stroke="#595a5a" stroke-miterlimit="10" stroke-width="1.5"/>
    <line x1="262.68" y1="944.78" x2="283.99" y2="907.88" fill="none" stroke="#595a5a" stroke-miterlimit="10" stroke-width="1.5"/>
    <line x1="288.5" y1="958.22" x2="306.51" y2="919.6" fill="none" stroke="#595a5a" stroke-miterlimit="10" stroke-width="1.5"/>
    <line x1="315.39" y1="969.36" x2="329.97" y2="929.32" fill="none" stroke="#595a5a" stroke-miterlimit="10" stroke-width="1.5"/>
    <line x1="343.15" y1="978.11" x2="354.18" y2="936.95" fill="none" stroke="#595a5a" stroke-miterlimit="10" stroke-width="1.5"/>
    <line x1="371.57" y1="984.41" x2="378.97" y2="942.45" fill="none" stroke="#595a5a" stroke-miterlimit="10" stroke-width="1.5"/>
    <line x1="400.43" y1="988.21" x2="404.14" y2="945.76" fill="none" stroke="#595a5a" stroke-miterlimit="10" stroke-width="1.5"/>
    <line x1="458.58" y1="988.21" x2="454.87" y2="945.76" fill="none" stroke="#595a5a" stroke-miterlimit="10" stroke-width="1.5"/>
    <line x1="487.44" y1="984.41" x2="480.04" y2="942.45" fill="none" stroke="#595a5a" stroke-miterlimit="10" stroke-width="1.5"/>
    <line x1="515.86" y1="978.11" x2="504.83" y2="936.95" fill="none" stroke="#595a5a" stroke-miterlimit="10" stroke-width="1.5"/>
    <line x1="543.62" y1="969.36" x2="529.04" y2="929.32" fill="none" stroke="#595a5a" stroke-miterlimit="10" stroke-width="1.5"/>
    <line x1="570.51" y1="958.22" x2="552.5" y2="919.6" fill="none" stroke="#595a5a" stroke-miterlimit="10" stroke-width="1.5"/>
    <line x1="596.33" y1="944.78" x2="575.02" y2="907.88" fill="none" stroke="#595a5a" stroke-miterlimit="10" stroke-width="1.5"/>
    <line x1="620.87" y1="929.14" x2="596.43" y2="894.24" fill="none" stroke="#595a5a" stroke-miterlimit="10" stroke-width="1.5"/>
    <line x1="643.96" y1="911.42" x2="616.58" y2="878.78" fill="none" stroke="#595a5a" stroke-miterlimit="10" stroke-width="1.5"/>
    <line x1="665.42" y1="891.76" x2="635.29" y2="861.63" fill="none" stroke="#595a5a" stroke-miterlimit="10" stroke-width="1.5"/>
    <line x1="685.09" y1="870.3" x2="652.45" y2="842.91" fill="none" stroke="#595a5a" stroke-miterlimit="10" stroke-width="1.5"/>
    <line x1="667.9" y1="822.77" x2="702.81" y2="847.21" fill="none" stroke="#595a5a" stroke-miterlimit="10" stroke-width="1.5"/>
    <line x1="718.45" y1="822.66" x2="681.54" y2="801.35" fill="none" stroke="#595a5a" stroke-miterlimit="10" stroke-width="1.5"/>
    <line x1="731.89" y1="796.84" x2="693.27" y2="778.83" fill="none" stroke="#595a5a" stroke-miterlimit="10" stroke-width="1.5"/>
    <line x1="743.02" y1="769.95" x2="702.98" y2="755.38" fill="none" stroke="#595a5a" stroke-miterlimit="10" stroke-width="1.5"/>
    <line x1="751.78" y1="742.19" x2="710.62" y2="731.16" fill="none" stroke="#595a5a" stroke-miterlimit="10" stroke-width="1.5"/>
    <line x1="758.08" y1="713.77" x2="716.11" y2="706.38" fill="none" stroke="#595a5a" stroke-miterlimit="10" stroke-width="1.5"/>
    <line x1="761.88" y1="684.92" x2="719.43" y2="681.2" fill="none" stroke="#595a5a" stroke-miterlimit="10" stroke-width="1.5"/>
    <line x1="761.88" y1="626.76" x2="719.43" y2="630.47" fill="none" stroke="#595a5a" stroke-miterlimit="10" stroke-width="1.5"/>
    <line x1="758.08" y1="597.9" x2="716.11" y2="605.3" fill="none" stroke="#595a5a" stroke-miterlimit="10" stroke-width="1.5"/>
    <line x1="751.78" y1="569.49" x2="710.62" y2="580.51" fill="none" stroke="#595a5a" stroke-miterlimit="10" stroke-width="1.5"/>
    <line x1="743.02" y1="541.73" x2="702.98" y2="556.3" fill="none" stroke="#595a5a" stroke-miterlimit="10" stroke-width="1.5"/>
    <line x1="731.89" y1="514.84" x2="693.27" y2="532.84" fill="none" stroke="#595a5a" stroke-miterlimit="10" stroke-width="1.5"/>
    <line x1="718.45" y1="489.02" x2="681.54" y2="510.32" fill="none" stroke="#595a5a" stroke-miterlimit="10" stroke-width="1.5"/>
    <line x1="702.81" y1="464.47" x2="667.9" y2="488.91" fill="none" stroke="#595a5a" stroke-miterlimit="10" stroke-width="1.5"/>
    <line x1="685.09" y1="441.38" x2="652.45" y2="468.77" fill="none" stroke="#595a5a" stroke-miterlimit="10" stroke-width="1.5"/>
    <line x1="665.42" y1="419.92" x2="635.29" y2="450.05" fill="none" stroke="#595a5a" stroke-miterlimit="10" stroke-width="1.5"/>
    <line x1="643.96" y1="400.25" x2="616.58" y2="432.9" fill="none" stroke="#595a5a" stroke-miterlimit="10" stroke-width="1.5"/>
    <line x1="620.87" y1="382.54" x2="596.43" y2="417.44" fill="none" stroke="#595a5a" stroke-miterlimit="10" stroke-width="1.5"/>
    <line x1="596.33" y1="366.9" x2="575.02" y2="403.8" fill="none" stroke="#595a5a" stroke-miterlimit="10" stroke-width="1.5"/>
    <line x1="570.51" y1="353.46" x2="552.5" y2="392.07" fill="none" stroke="#595a5a" stroke-miterlimit="10" stroke-width="1.5"/>
    <line x1="543.62" y1="342.32" x2="529.04" y2="382.36" fill="none" stroke="#595a5a" stroke-miterlimit="10" stroke-width="1.5"/>
    <line x1="515.86" y1="333.57" x2="504.83" y2="374.72" fill="none" stroke="#595a5a" stroke-miterlimit="10" stroke-width="1.5"/>
    <line x1="487.44" y1="327.27" x2="480.04" y2="369.23" fill="none" stroke="#595a5a" stroke-miterlimit="10" stroke-width="1.5"/>
    <line x1="458.58" y1="323.47" x2="454.87" y2="365.91" fill="none" stroke="#595a5a" stroke-miterlimit="10" stroke-width="1.5"/>
  </g>
  <circle cx="430.38" cy="660.78" r="333.64" fill="rgba(244, 242, 190, .2)" stroke="#231f20" stroke-miterlimit="10" stroke-width="15"/>
  <g>
    <path d="M547.15,546.51l-80.96,101.94c55.68,4.95,111.36,9.89,167.04,14.84-55.68,4.95-111.36,9.89-167.04,14.84l80.96,101.94-101.94-80.96-14.84,129.33-14.84-129.33-101.94,80.96,80.96-101.94c-55.68-4.95-111.36-9.89-167.04-14.84,55.68-4.95,111.36-9.89,167.04-14.84l-80.96-101.94,101.94,80.96,14.84-129.33,14.84,129.33,101.94-80.96Z" fill="#99999a"/>
    <g>
      <path d="M430.38,464.09c12.43,66.4,24.85,132.8,37.28,199.2h-74.56c12.43-66.4,24.85-132.8,37.28-199.2Z" fill="#ee3937" stroke="#231f20" stroke-miterlimit="10" stroke-width="8"/>
      <g>
        <polygon points="397.97 667.29 462.78 667.29 430.38 829.62 397.97 667.29" fill="#4361ab"/>
        <path d="M457.9,671.29l-17.97,90.03-9.56,47.87-27.53-137.9h55.05M467.66,663.29h-74.56c12.43,62.26,24.85,124.52,37.28,186.77,12.43-62.26,24.85-124.52,37.28-186.77h0Z" fill="#231f20"/>
      </g>
      <circle cx="430.38" cy="663.29" r="37.28" fill="#fff" stroke="#231f20" stroke-miterlimit="10" stroke-width="10"/>
    </g>
  </g>
  <g>
    <path d="M470.63,917.01c0,2.56-.96,5.22-2.89,7.96-2.7,3.83-6.65,6.21-11.83,7.12-3.48.62-6.41.92-8.79.92-7.11,0-11.1-2.29-11.95-6.85-.26-1.43-.5-4.08-.72-7.96-.16-2.74-.6-4.78-1.31-6.11-.97-1.89-2.82-3.48-5.54-4.77-.16.48-.24,1.86-.24,4.14,0,5.78,1.05,12.23,3.16,19.34l-14.07.09c-6.5.06-9.86.13-10.1.21-.02-.1-.04-.22-.06-.36,0-2.21.35-3.37,1.04-3.49,1.15-.16,2.3-.32,3.46-.48,1.15-.36,1.77-1.23,1.85-2.62.52-7.47,1.07-13.12,1.67-16.96,1.07-6.7,2.78-12.9,5.13-18.63-.42.08-1.01.12-1.79.12-2.11,0-3.78-.57-5.01-1.7l1.91-7.03c3.5,2.72,7.11,4.64,10.85,5.75,3.14.93,6.78,1.4,10.94,1.4,1.79,0,4.71-.13,8.78-.4,4.06-.27,6.55-.4,7.47-.4,4.39,0,7.7,1.04,9.92,3.13,1.89,1.77,2.83,4.1,2.83,7,0,4.37-2.32,7.83-6.97,10.37-4.07,2.25-9.08,3.37-15.02,3.37-1.95,0-4.01-.12-6.2-.36,4.45.93,7.58,2.06,9.39,3.37,1.47,1.09,2.21,2.46,2.21,4.11,0,.68-.16,1.83-.49,3.47s-.49,2.93-.49,3.86c0,2.44,1.42,3.67,4.26,3.67,2.26,0,4.82-.56,7.66-1.67,2.76-1.07,4.14-1.98,4.14-2.71,0-.26-.21-.39-.63-.39-.28,0-1.26.19-2.95.58-1.69.39-3.07.58-4.14.58-2.66,0-4.34-.86-5.04-2.59-.1-.22-.15-.49-.15-.8,0-1.33.84-2.78,2.53-4.35,1.87-1.75,4.34-3.21,7.42-4.38,1.49-.58,2.85-.86,4.08-.86,1.81,0,3.25.62,4.32,1.85.91,1.03,1.37,2.19,1.37,3.46ZM453.97,900.59c0-1.67-1.77-3.28-5.32-4.84-3.55-1.56-7.25-2.34-11.1-2.34-3.2,0-5.98.38-8.34,1.15-2.36.76-3.55,1.7-3.55,2.82,0,1.93,2.39,3.59,7.18,4.98,3.85,1.11,7.27,1.67,10.25,1.67s5.41-.27,7.42-.8c2.3-.64,3.46-1.51,3.46-2.62Z" fill="#231f20"/>
    <path d="M453.96,392.71c0,2.11-.72,3.63-2.16,4.57-1.44.94-3.79,1.42-7.05,1.42-3.89,0-7.18-.7-9.86-2.12-2.5-1.33-3.76-2.86-3.76-4.59s.81-3.26,2.44-4.65c1.71-1.47,3.76-2.21,6.17-2.21.38,0,.89.01,1.55.03.66.02,1.05.03,1.19.03h.48c.42-.12.63-.32.63-.6,0-.7-.76-1.4-2.27-2.12-1.81-.87-4.06-1.31-6.77-1.31-3.87,0-7.11,1.25-9.72,3.76-3.08,2.94-4.62,7.16-4.62,12.67,0,1.55.14,3.26.42,5.13,1.27,8.31,2.41,13.87,3.43,16.69,1.23,3.44,2.98,5.16,5.25,5.16,3.42,0,5.13-1.83,5.13-5.48,0-1.63-.41-4.17-1.22-7.63-.34-1.41-1.06-2.29-2.18-2.65-1.17-.2-2.34-.4-3.52-.6-.44-.08-.73-.68-.86-1.79-.08-.85-.07-1.6.03-2.24.38.2,8.59.43,24.65.69-2.72,4.27-4.08,9.3-4.08,15.08,0,1.05.06,1.82.18,2.29-.66.77-2.22,1.73-4.68,2.86-3.64,1.69-8.06,3.06-13.26,4.11-2.42.5-4.62.75-6.59.75-10.75,0-16.12-6.96-16.12-20.89,0-20.96,7.98-31.44,23.93-31.44,13.59,0,21.22,3.97,22.89,11.92.24,1.17.36,2.23.36,3.16Z" fill="#231f20"/>
    <path d="M702.66,660.17c0,1.87-.37,4.22-1.1,7.06-.97,3.8-3.66,6.8-8.05,9-4.57,2.3-10.47,3.46-17.7,3.46s-12.71-1.38-16.84-4.14c-3.46-2.28-5.19-4.9-5.19-7.84,0-1.89.73-3.51,2.18-4.86,1.65-1.55,4.03-2.53,7.15-2.95,1.55-.2,3.14-.3,4.77-.3,3.36,0,6.01.49,7.96,1.46,1.89.93,2.83,2.18,2.83,3.73,0,2.34-1.25,4.32-3.76,5.93-1.19.77-3.23,1.67-6.11,2.68-1.11.38-1.67.73-1.67,1.04,0,.97,2.06,1.46,6.17,1.46,3.24,0,5.98-.47,8.23-1.4,2.78-1.15,4.17-2.82,4.17-5.01,0-.32-.04-.69-.12-1.1-1.13-5.8-1.98-9.27-2.53-10.4-1.19-2.34-3.46-3.52-6.8-3.52-.87,0-2.37.11-4.49.34s-3.64.34-4.57.34c-6.42,0-9.63-2.59-9.63-7.78,0-1.65.33-3.66.98-6.02.87-3.22,2.83-5.78,5.87-7.69,3.64-2.28,8.59-3.43,14.87-3.43s11.49,1.01,15.11,3.04c3.28,1.85,4.92,4.19,4.92,7.03,0,4.23-3.38,6.35-10.13,6.35-3.3,0-6.1-.55-8.4-1.64-2.17-1.01-3.25-2.18-3.25-3.49,0-1.89,1.44-3.38,4.32-4.47,1.09-.36,2.19-.72,3.31-1.07,1.01-.38,1.52-.76,1.52-1.16,0-.54-.7-1.01-2.1-1.42-1.4-.41-2.99-.61-4.75-.61-2.19,0-3.97.35-5.36,1.04-1.67.83-2.5,2.08-2.5,3.73,0,.77.19,1.63.57,2.56l1.61,5.36c.62,1.91,1.53,3.28,2.74,4.11,1.59,1.09,4.06,1.64,7.42,1.64.3,0,1.24-.03,2.83-.1,1.59-.07,2.78-.1,3.58-.1,3.82,0,6.64.55,8.46,1.64,2.32,1.41,3.49,3.9,3.49,7.48Z" fill="#231f20"/>
    <path d="M204.9,661.45c0,3-.46,5.93-1.37,8.79-.66,2.07-1.56,4.07-2.71,6.02-.64.99-1.26,2-1.88,3.01-.16.26-.43.36-.8.3-7.33-1.11-14.31-1.67-20.92-1.67-8.74,0-14,1.2-15.77,3.61l-1.34-7.51c1.07-.72,2.45-1.07,4.14-1.07.85,0,1.84.12,2.95.36-2.74-6.85-4.11-16.29-4.11-28.31,0-.89.02-2.26.07-4.1.05-1.84.07-3.24.07-4.22,0-1.69-.9-2.7-2.71-3.04-.66-.08-1.67-.25-3.04-.51-.54-.14-.8-1.09-.8-2.86,0-.46.04-.88.12-1.28.38.18,9.32,1.07,26.82,2.68-1.69,3.44-3.23,7.91-4.62,13.41-1.49,5.82-2.24,10.61-2.24,14.36,0,9,3.44,13.5,10.31,13.5,4.99,0,8.74-.94,11.27-2.83,1.85-1.37,2.77-2.91,2.77-4.62,0-.89-.22-1.34-.66-1.34-.1,0-.2.04-.3.12-3.04,2.11-6.16,3.16-9.36,3.16-2.92,0-5.26-.99-7-2.98-.77-.87-1.16-1.81-1.16-2.8,0-1.63.94-3.22,2.83-4.77,1.83-1.53,4.22-2.75,7.18-3.67,2.34-.74,4.27-1.1,5.78-1.1,4.31,0,6.47,3.12,6.47,9.36Z" fill="#231f20"/>
  </g>
  <path d="M74.07,596.52c-26.86-9.25-27.46-65.5,4.5-102.56,15.69-18.19,41.14-17.98,61.48-5.2,22.27,13.99,20.03,27.25,18.6,31.56-3.78,11.42-48.68-3.38-48.68-3.38,91.23,60.25-19.76,42.2-16.62,40.81,88.96,60.48-1.87,46.83-19.28,38.77h0Z" fill="#69ad64" stroke="#000" stroke-linejoin="round" stroke-width="8"/>
  <path d="M718.11,474.52c25.53-12.45,65.73,26.9,69.34,75.7,1.77,23.96-16.38,41.8-39.8,47.15-25.64,5.85-33.43-5.1-35.47-9.16-5.4-10.74,36.81-32.03,36.81-32.03-107.11,21.91-15.86-43.81-17.1-40.61-105.67,20.14-31.8-34.44-13.78-41.05h0Z" fill="#69ad64" stroke="#000" stroke-linejoin="round" stroke-width="8"/>
  <path d="M592.18,350.55s70.21-24.98,130.83-56.66c36.37-19,69.28-40.41,81.5-60.28" fill="none" stroke="#508a49" stroke-linecap="round" stroke-linejoin="round" stroke-width="8"/>
  <path d="M802.61,320.33s-28.5-50.98-74.59-28.74" fill="none" stroke="#508a49" stroke-linecap="round" stroke-linejoin="round" stroke-width="8"/>
  <path d="M693.32,389.35s17.02-27.46,6.73-82.2" fill="none" stroke="#508a49" stroke-linecap="round" stroke-linejoin="round" stroke-width="8"/>
</svg>