<?xml version="1.0" encoding="UTF-8"?>
<svg id="Layer_1" data-name="Layer 1" xmlns="http://www.w3.org/2000/svg" width="1024" height="1024" viewBox="0 0 1024 1024">
  <g>
    <circle cx="512.03" cy="512.35" r="468.41" fill="rgba(255, 247, 231, .3)" stroke="#231f20" stroke-miterlimit="10" stroke-width="4"/>
    <circle cx="512.03" cy="512.35" r="468.41" fill="none" stroke="#231f20" stroke-miterlimit="10" stroke-width="4"/>
    <g>
      <line x1="471.26" y1="45.02" x2="476.47" y2="104.61" fill="none" stroke="#595a5a" stroke-miterlimit="10" stroke-width="1.5"/>
      <line x1="430.74" y1="50.35" x2="441.13" y2="109.27" fill="none" stroke="#595a5a" stroke-miterlimit="10" stroke-width="1.5"/>
      <line x1="390.85" y1="59.2" x2="406.33" y2="116.98" fill="none" stroke="#595a5a" stroke-miterlimit="10" stroke-width="1.5"/>
      <line x1="351.88" y1="71.49" x2="372.34" y2="127.7" fill="none" stroke="#595a5a" stroke-miterlimit="10" stroke-width="1.5"/>
      <line x1="314.12" y1="87.12" x2="339.41" y2="141.34" fill="none" stroke="#595a5a" stroke-miterlimit="10" stroke-width="1.5"/>
      <line x1="277.88" y1="105.99" x2="307.79" y2="157.8" fill="none" stroke="#595a5a" stroke-miterlimit="10" stroke-width="1.5"/>
      <line x1="243.41" y1="127.95" x2="277.73" y2="176.95" fill="none" stroke="#595a5a" stroke-miterlimit="10" stroke-width="1.5"/>
      <line x1="210.99" y1="152.82" x2="249.45" y2="198.65" fill="none" stroke="#595a5a" stroke-miterlimit="10" stroke-width="1.5"/>
      <line x1="180.87" y1="180.43" x2="223.17" y2="222.73" fill="none" stroke="#595a5a" stroke-miterlimit="10" stroke-width="1.5"/>
      <line x1="153.26" y1="210.56" x2="199.09" y2="249.01" fill="none" stroke="#595a5a" stroke-miterlimit="10" stroke-width="1.5"/>
      <line x1="128.38" y1="242.98" x2="177.39" y2="277.29" fill="none" stroke="#595a5a" stroke-miterlimit="10" stroke-width="1.5"/>
      <line x1="106.43" y1="277.44" x2="158.24" y2="307.35" fill="none" stroke="#595a5a" stroke-miterlimit="10" stroke-width="1.5"/>
      <line x1="87.56" y1="313.69" x2="141.78" y2="338.97" fill="none" stroke="#595a5a" stroke-miterlimit="10" stroke-width="1.5"/>
      <line x1="71.92" y1="351.44" x2="128.14" y2="371.9" fill="none" stroke="#595a5a" stroke-miterlimit="10" stroke-width="1.5"/>
      <line x1="59.63" y1="390.41" x2="117.42" y2="405.9" fill="none" stroke="#595a5a" stroke-miterlimit="10" stroke-width="1.5"/>
      <line x1="50.79" y1="430.31" x2="109.7" y2="440.7" fill="none" stroke="#595a5a" stroke-miterlimit="10" stroke-width="1.5"/>
      <line x1="45.46" y1="470.82" x2="105.05" y2="476.04" fill="none" stroke="#595a5a" stroke-miterlimit="10" stroke-width="1.5"/>
      <line x1="45.46" y1="552.47" x2="105.05" y2="547.26" fill="none" stroke="#595a5a" stroke-miterlimit="10" stroke-width="1.5"/>
      <line x1="50.79" y1="592.99" x2="109.7" y2="582.6" fill="none" stroke="#595a5a" stroke-miterlimit="10" stroke-width="1.5"/>
      <line x1="59.63" y1="632.88" x2="117.42" y2="617.4" fill="none" stroke="#595a5a" stroke-miterlimit="10" stroke-width="1.5"/>
      <line x1="71.92" y1="671.85" x2="128.14" y2="651.39" fill="none" stroke="#595a5a" stroke-miterlimit="10" stroke-width="1.5"/>
      <line x1="87.56" y1="709.6" x2="141.78" y2="684.32" fill="none" stroke="#595a5a" stroke-miterlimit="10" stroke-width="1.5"/>
      <line x1="106.43" y1="745.85" x2="158.24" y2="715.94" fill="none" stroke="#595a5a" stroke-miterlimit="10" stroke-width="1.5"/>
      <line x1="128.38" y1="780.32" x2="177.39" y2="746" fill="none" stroke="#595a5a" stroke-miterlimit="10" stroke-width="1.5"/>
      <line x1="153.26" y1="812.73" x2="199.09" y2="774.28" fill="none" stroke="#595a5a" stroke-miterlimit="10" stroke-width="1.5"/>
      <line x1="180.87" y1="842.86" x2="223.17" y2="800.56" fill="none" stroke="#595a5a" stroke-miterlimit="10" stroke-width="1.5"/>
      <line x1="210.99" y1="870.47" x2="249.45" y2="824.64" fill="none" stroke="#595a5a" stroke-miterlimit="10" stroke-width="1.5"/>
      <line x1="243.41" y1="895.34" x2="277.73" y2="846.34" fill="none" stroke="#595a5a" stroke-miterlimit="10" stroke-width="1.5"/>
      <line x1="277.88" y1="917.3" x2="307.79" y2="865.49" fill="none" stroke="#595a5a" stroke-miterlimit="10" stroke-width="1.5"/>
      <line x1="314.12" y1="936.17" x2="339.41" y2="881.95" fill="none" stroke="#595a5a" stroke-miterlimit="10" stroke-width="1.5"/>
      <line x1="351.88" y1="951.81" x2="372.34" y2="895.59" fill="none" stroke="#595a5a" stroke-miterlimit="10" stroke-width="1.5"/>
      <line x1="390.85" y1="964.1" x2="406.33" y2="906.31" fill="none" stroke="#595a5a" stroke-miterlimit="10" stroke-width="1.5"/>
      <line x1="430.74" y1="972.94" x2="441.13" y2="914.03" fill="none" stroke="#595a5a" stroke-miterlimit="10" stroke-width="1.5"/>
      <line x1="471.26" y1="978.27" x2="476.47" y2="918.68" fill="none" stroke="#595a5a" stroke-miterlimit="10" stroke-width="1.5"/>
      <line x1="552.91" y1="978.27" x2="547.69" y2="918.68" fill="none" stroke="#595a5a" stroke-miterlimit="10" stroke-width="1.5"/>
      <line x1="593.42" y1="972.94" x2="583.03" y2="914.03" fill="none" stroke="#595a5a" stroke-miterlimit="10" stroke-width="1.5"/>
      <line x1="633.32" y1="964.1" x2="617.83" y2="906.31" fill="none" stroke="#595a5a" stroke-miterlimit="10" stroke-width="1.5"/>
      <line x1="672.29" y1="951.81" x2="651.83" y2="895.59" fill="none" stroke="#595a5a" stroke-miterlimit="10" stroke-width="1.5"/>
      <line x1="710.04" y1="936.17" x2="684.76" y2="881.95" fill="none" stroke="#595a5a" stroke-miterlimit="10" stroke-width="1.5"/>
      <line x1="746.29" y1="917.3" x2="716.38" y2="865.49" fill="none" stroke="#595a5a" stroke-miterlimit="10" stroke-width="1.5"/>
      <line x1="780.75" y1="895.34" x2="746.44" y2="846.34" fill="none" stroke="#595a5a" stroke-miterlimit="10" stroke-width="1.5"/>
      <line x1="813.17" y1="870.47" x2="774.72" y2="824.64" fill="none" stroke="#595a5a" stroke-miterlimit="10" stroke-width="1.5"/>
      <line x1="843.3" y1="842.86" x2="801" y2="800.56" fill="none" stroke="#595a5a" stroke-miterlimit="10" stroke-width="1.5"/>
      <line x1="870.9" y1="812.73" x2="825.08" y2="774.28" fill="none" stroke="#595a5a" stroke-miterlimit="10" stroke-width="1.5"/>
      <line x1="895.78" y1="780.32" x2="846.78" y2="746" fill="none" stroke="#595a5a" stroke-miterlimit="10" stroke-width="1.5"/>
      <line x1="917.74" y1="745.85" x2="865.93" y2="715.94" fill="none" stroke="#595a5a" stroke-miterlimit="10" stroke-width="1.5"/>
      <line x1="936.6" y1="709.6" x2="882.39" y2="684.32" fill="none" stroke="#595a5a" stroke-miterlimit="10" stroke-width="1.5"/>
      <line x1="952.24" y1="671.85" x2="896.03" y2="651.39" fill="none" stroke="#595a5a" stroke-miterlimit="10" stroke-width="1.5"/>
      <line x1="964.53" y1="632.88" x2="906.75" y2="617.4" fill="none" stroke="#595a5a" stroke-miterlimit="10" stroke-width="1.5"/>
      <line x1="973.37" y1="592.99" x2="914.46" y2="582.6" fill="none" stroke="#595a5a" stroke-miterlimit="10" stroke-width="1.5"/>
      <line x1="978.71" y1="552.47" x2="919.11" y2="547.26" fill="none" stroke="#595a5a" stroke-miterlimit="10" stroke-width="1.5"/>
      <line x1="978.71" y1="470.82" x2="919.11" y2="476.04" fill="none" stroke="#595a5a" stroke-miterlimit="10" stroke-width="1.5"/>
      <line x1="973.37" y1="430.31" x2="914.46" y2="440.7" fill="none" stroke="#595a5a" stroke-miterlimit="10" stroke-width="1.5"/>
      <line x1="964.53" y1="390.41" x2="906.75" y2="405.9" fill="none" stroke="#595a5a" stroke-miterlimit="10" stroke-width="1.5"/>
      <line x1="952.24" y1="351.44" x2="896.03" y2="371.9" fill="none" stroke="#595a5a" stroke-miterlimit="10" stroke-width="1.5"/>
      <line x1="936.6" y1="313.69" x2="882.39" y2="338.97" fill="none" stroke="#595a5a" stroke-miterlimit="10" stroke-width="1.5"/>
      <line x1="917.74" y1="277.44" x2="865.93" y2="307.35" fill="none" stroke="#595a5a" stroke-miterlimit="10" stroke-width="1.5"/>
      <line x1="895.78" y1="242.98" x2="846.78" y2="277.29" fill="none" stroke="#595a5a" stroke-miterlimit="10" stroke-width="1.5"/>
      <line x1="870.9" y1="210.56" x2="825.08" y2="249.01" fill="none" stroke="#595a5a" stroke-miterlimit="10" stroke-width="1.5"/>
      <line x1="843.3" y1="180.43" x2="801" y2="222.73" fill="none" stroke="#595a5a" stroke-miterlimit="10" stroke-width="1.5"/>
      <line x1="813.17" y1="152.82" x2="774.72" y2="198.65" fill="none" stroke="#595a5a" stroke-miterlimit="10" stroke-width="1.5"/>
      <line x1="780.75" y1="127.95" x2="746.44" y2="176.95" fill="none" stroke="#595a5a" stroke-miterlimit="10" stroke-width="1.5"/>
      <line x1="746.29" y1="105.99" x2="716.38" y2="157.8" fill="none" stroke="#595a5a" stroke-miterlimit="10" stroke-width="1.5"/>
      <line x1="710.04" y1="87.12" x2="684.76" y2="141.34" fill="none" stroke="#595a5a" stroke-miterlimit="10" stroke-width="1.5"/>
      <line x1="672.29" y1="71.49" x2="651.83" y2="127.7" fill="none" stroke="#595a5a" stroke-miterlimit="10" stroke-width="1.5"/>
      <line x1="633.32" y1="59.2" x2="617.83" y2="116.98" fill="none" stroke="#595a5a" stroke-miterlimit="10" stroke-width="1.5"/>
      <line x1="593.42" y1="50.35" x2="583.03" y2="109.27" fill="none" stroke="#595a5a" stroke-miterlimit="10" stroke-width="1.5"/>
      <line x1="552.91" y1="45.02" x2="547.69" y2="104.61" fill="none" stroke="#595a5a" stroke-miterlimit="10" stroke-width="1.5"/>
    </g>
    <g>
      <path d="M677.25,357.13l-113.66,143.12c78.17,6.94,156.34,13.89,234.51,20.83-78.17,6.94-156.34,13.89-234.51,20.83l113.66,143.12-143.12-113.66-20.83,181.57-20.83-181.57-143.12,113.66,113.66-143.12c-78.17-6.94-156.34-13.89-234.51-20.83,78.17-6.94,156.34-13.89,234.51-20.83l-113.66-143.12,143.12,113.66,20.83-181.57,20.83,181.57,143.12-113.66Z" fill="#99999a"/>
      <g>
        <path d="M513.31,241.41c17.45,93.22,34.89,186.44,52.34,279.66h-104.68c17.45-93.22,34.89-186.44,52.34-279.66Z" fill="#ee3937" stroke="#231f20" stroke-miterlimit="10" stroke-width="7"/>
        <g>
          <polygon points="465.84 525.08 560.77 525.08 513.31 762.86 465.84 525.08" fill="#4361ab"/>
          <path d="M555.89,529.08l-19.03,95.32-23.56,118.03-42.59-213.35h85.17M565.65,521.08h-104.68c17.45,87.41,34.89,174.81,52.34,262.22,17.45-87.41,34.89-174.81,52.34-262.22h0Z" fill="#231f20"/>
        </g>
        <circle cx="513.31" cy="521.08" r="52.34" fill="#fff" stroke="#231f20" stroke-miterlimit="10" stroke-width="8"/>
      </g>
    </g>
    <g>
      <path d="M569.82,877.28c0,3.6-1.35,7.32-4.06,11.17-3.79,5.38-9.33,8.72-16.61,10-4.88.86-9,1.3-12.34,1.3-9.99,0-15.58-3.21-16.78-9.62-.36-2.01-.7-5.73-1-11.17-.22-3.85-.84-6.71-1.84-8.58-1.37-2.65-3.96-4.88-7.78-6.7-.22.67-.33,2.61-.33,5.82,0,8.12,1.48,17.17,4.44,27.15l-19.75.13c-9.12.08-13.85.18-14.18.29-.03-.14-.06-.31-.08-.5,0-3.1.49-4.73,1.46-4.9,1.62-.22,3.24-.45,4.85-.67,1.62-.5,2.48-1.73,2.59-3.68.73-10.49,1.51-18.42,2.34-23.81,1.51-9.4,3.9-18.12,7.2-26.15-.59.11-1.42.17-2.51.17-2.96,0-5.3-.79-7.03-2.38l2.68-9.87c4.91,3.82,9.99,6.51,15.23,8.08,4.41,1.31,9.53,1.97,15.36,1.97,2.51,0,6.62-.19,12.32-.56s9.2-.56,10.48-.56c6.16,0,10.81,1.46,13.93,4.39,2.65,2.48,3.98,5.76,3.98,9.83,0,6.14-3.26,10.99-9.79,14.56-5.72,3.15-12.75,4.73-21.09,4.73-2.73,0-5.63-.17-8.7-.5,6.25,1.31,10.64,2.89,13.18,4.73,2.06,1.53,3.1,3.46,3.1,5.77,0,.95-.23,2.57-.69,4.87s-.69,4.11-.69,5.42c0,3.43,1.99,5.15,5.98,5.15,3.18,0,6.76-.78,10.75-2.34,3.88-1.51,5.82-2.78,5.82-3.81,0-.36-.29-.54-.88-.54-.39,0-1.77.27-4.14.82s-4.31.82-5.82.82c-3.74,0-6.1-1.21-7.07-3.64-.14-.31-.21-.68-.21-1.13,0-1.87,1.18-3.91,3.56-6.11,2.62-2.45,6.09-4.5,10.42-6.15,2.09-.81,4-1.21,5.73-1.21,2.54,0,4.56.86,6.07,2.59,1.28,1.45,1.92,3.07,1.92,4.85ZM546.43,854.23c0-2.34-2.49-4.61-7.47-6.8-4.98-2.19-10.17-3.28-15.59-3.28-4.49,0-8.4.54-11.72,1.61-3.32,1.07-4.98,2.39-4.98,3.95,0,2.71,3.36,5.04,10.08,6.99,5.41,1.56,10.21,2.34,14.39,2.34s7.6-.38,10.42-1.13c3.24-.89,4.85-2.12,4.85-3.68Z" fill="#231f20"/>
      <path d="M548.65,162.43c0,2.96-1.01,5.1-3.03,6.42-2.02,1.33-5.32,1.99-9.9,1.99-5.47,0-10.08-.99-13.85-2.97-3.51-1.87-5.27-4.02-5.27-6.44s1.14-4.57,3.43-6.53c2.4-2.06,5.29-3.1,8.66-3.1.53,0,1.26.01,2.18.04.92.03,1.48.04,1.67.04h.67c.58-.17.88-.45.88-.84,0-.98-1.06-1.97-3.18-2.97-2.54-1.23-5.71-1.84-9.5-1.84-5.44,0-9.99,1.76-13.64,5.27-4.32,4.13-6.49,10.06-6.49,17.78,0,2.18.19,4.58.59,7.2,1.78,11.66,3.39,19.47,4.81,23.43,1.73,4.83,4.18,7.24,7.36,7.24,4.8,0,7.2-2.57,7.2-7.7,0-2.29-.57-5.86-1.72-10.71-.47-1.98-1.49-3.22-3.05-3.72-1.65-.28-3.29-.56-4.94-.84-.61-.11-1.02-.95-1.21-2.51-.11-1.2-.1-2.25.04-3.14.53.28,12.06.6,34.6.96-3.82,6-5.73,13.05-5.73,21.17,0,1.48.08,2.55.25,3.22-.92,1.09-3.11,2.43-6.57,4.02-5.1,2.37-11.31,4.3-18.62,5.77-3.4.7-6.49,1.05-9.25,1.05-15.09,0-22.64-9.78-22.64-29.33,0-29.43,11.2-44.14,33.6-44.14,19.08,0,29.79,5.58,32.13,16.74.33,1.65.5,3.12.5,4.44Z" fill="#231f20"/>
      <path d="M895.58,516.7c0,2.62-.52,5.93-1.55,9.92-1.37,5.33-5.13,9.54-11.3,12.64-6.42,3.24-14.7,4.85-24.85,4.85s-17.84-1.94-23.64-5.82c-4.85-3.21-7.28-6.88-7.28-11,0-2.65,1.02-4.92,3.05-6.82,2.32-2.18,5.66-3.56,10.04-4.14,2.18-.28,4.41-.42,6.69-.42,4.71,0,8.44.68,11.17,2.05,2.65,1.31,3.97,3.05,3.97,5.23,0,3.29-1.76,6.07-5.27,8.33-1.67,1.09-4.53,2.34-8.58,3.77-1.56.53-2.34,1.02-2.34,1.46,0,1.37,2.89,2.05,8.66,2.05,4.55,0,8.4-.66,11.55-1.97,3.91-1.62,5.86-3.96,5.86-7.03,0-.45-.06-.96-.17-1.55-1.59-8.14-2.78-13.01-3.56-14.6-1.67-3.29-4.85-4.94-9.54-4.94-1.23,0-3.33.16-6.3.48-2.97.32-5.11.48-6.42.48-9.01,0-13.51-3.64-13.51-10.92,0-2.31.46-5.13,1.38-8.45,1.23-4.52,3.97-8.12,8.24-10.79,5.1-3.21,12.06-4.81,20.88-4.81s16.14,1.42,21.21,4.27c4.6,2.59,6.9,5.89,6.9,9.87,0,5.94-4.74,8.91-14.23,8.91-4.63,0-8.56-.77-11.8-2.3-3.04-1.42-4.56-3.05-4.56-4.9,0-2.65,2.02-4.74,6.07-6.28,1.53-.5,3.08-1,4.64-1.51,1.42-.53,2.13-1.07,2.13-1.63,0-.75-.98-1.42-2.95-1.99-1.97-.57-4.19-.86-6.67-.86-3.07,0-5.58.49-7.53,1.46-2.34,1.17-3.51,2.92-3.51,5.23,0,1.09.26,2.29.79,3.6.75,2.51,1.51,5.02,2.26,7.53.86,2.68,2.15,4.6,3.85,5.77,2.23,1.53,5.7,2.3,10.42,2.3.42,0,1.74-.05,3.97-.15,2.23-.1,3.91-.15,5.02-.15,5.36,0,9.32.77,11.88,2.3,3.26,1.98,4.9,5.48,4.9,10.5Z" fill="#231f20"/>
      <path d="M196.75,518.5c0,4.21-.64,8.33-1.92,12.34-.92,2.9-2.19,5.72-3.81,8.45-.89,1.4-1.77,2.8-2.64,4.23-.22.36-.6.5-1.13.42-10.29-1.56-20.08-2.34-29.37-2.34-12.27,0-19.65,1.69-22.13,5.06l-1.88-10.54c1.51-1,3.44-1.51,5.82-1.51,1.2,0,2.58.17,4.14.5-3.85-9.62-5.77-22.87-5.77-39.75,0-1.26.03-3.17.1-5.75.07-2.58.1-4.55.1-5.92,0-2.37-1.27-3.79-3.81-4.27-.92-.11-2.34-.35-4.27-.71-.75-.19-1.13-1.53-1.13-4.02,0-.64.06-1.24.17-1.8.53.25,13.08,1.51,37.66,3.77-2.37,4.83-4.53,11.1-6.49,18.83-2.09,8.17-3.14,14.9-3.14,20.17,0,12.64,4.83,18.95,14.48,18.95,7,0,12.27-1.33,15.82-3.98,2.59-1.92,3.89-4.09,3.89-6.49,0-1.25-.31-1.88-.92-1.88-.14,0-.28.06-.42.17-4.27,2.96-8.65,4.43-13.14,4.43-4.1,0-7.38-1.39-9.83-4.18-1.09-1.23-1.63-2.54-1.63-3.93,0-2.29,1.32-4.52,3.97-6.69,2.57-2.15,5.93-3.86,10.08-5.15,3.29-1.03,6-1.55,8.12-1.55,6.05,0,9.08,4.38,9.08,13.14Z" fill="#231f20"/>
    </g>
    <line x1="512.08" y1="43.24" x2="512.08" y2="103.06" fill="none" stroke="#231f20" stroke-miterlimit="10" stroke-width="1.5"/>
    <line x1="43.67" y1="511.65" x2="103.49" y2="511.65" fill="none" stroke="#231f20" stroke-miterlimit="10" stroke-width="8"/>
    <line x1="512.08" y1="980.06" x2="512.08" y2="920.23" fill="none" stroke="#231f20" stroke-miterlimit="10" stroke-width="8"/>
    <line x1="982.15" y1="511.65" x2="922.33" y2="511.65" fill="none" stroke="#231f20" stroke-miterlimit="10" stroke-width="8"/>
    <line x1="512.08" y1="43.24" x2="512.08" y2="103.06" fill="none" stroke="#231f20" stroke-linejoin="round" stroke-width="8"/>
  </g>
  <circle cx="511.11" cy="511.22" r="467.6" fill="none" stroke="#231f20" stroke-miterlimit="10" stroke-width="12"/>
</svg>