<?xml version="1.0" encoding="UTF-8"?>
<svg id="Layer_1" data-name="Layer 1" xmlns="http://www.w3.org/2000/svg" width="1024" height="1024" viewBox="0 0 1024 1024">
  <circle cx="510.93" cy="511.62" r="482.77"/>
  <line x1="470.91" y1="31.44" x2="476.29" y2="92.86" fill="none" stroke="#606060" stroke-miterlimit="10" stroke-width="5"/>
  <line x1="429.16" y1="36.94" x2="439.86" y2="97.66" fill="none" stroke="#606060" stroke-miterlimit="10" stroke-width="5"/>
  <line x1="388.04" y1="46.05" x2="404" y2="105.61" fill="none" stroke="#606060" stroke-miterlimit="10" stroke-width="5"/>
  <line x1="347.87" y1="58.72" x2="368.96" y2="116.65" fill="none" stroke="#606060" stroke-miterlimit="10" stroke-width="5"/>
  <line x1="308.96" y1="74.83" x2="335.02" y2="130.71" fill="none" stroke="#606060" stroke-miterlimit="10" stroke-width="5"/>
  <line x1="271.6" y1="94.28" x2="302.43" y2="147.68" fill="none" stroke="#606060" stroke-miterlimit="10" stroke-width="5"/>
  <line x1="236.08" y1="116.91" x2="271.45" y2="167.42" fill="none" stroke="#606060" stroke-miterlimit="10" stroke-width="5"/>
  <line x1="202.67" y1="142.55" x2="242.3" y2="189.78" fill="none" stroke="#606060" stroke-miterlimit="10" stroke-width="5"/>
  <line x1="171.62" y1="171" x2="215.21" y2="214.6" fill="none" stroke="#606060" stroke-miterlimit="10" stroke-width="5"/>
  <line x1="143.16" y1="202.05" x2="190.39" y2="241.69" fill="none" stroke="#606060" stroke-miterlimit="10" stroke-width="5"/>
  <line x1="117.52" y1="235.47" x2="168.03" y2="270.83" fill="none" stroke="#606060" stroke-miterlimit="10" stroke-width="5"/>
  <line x1="94.9" y1="270.99" x2="148.29" y2="301.82" fill="none" stroke="#606060" stroke-miterlimit="10" stroke-width="5"/>
  <line x1="75.45" y1="308.35" x2="131.33" y2="334.4" fill="none" stroke="#606060" stroke-miterlimit="10" stroke-width="5"/>
  <line x1="59.33" y1="347.26" x2="117.27" y2="368.34" fill="none" stroke="#606060" stroke-miterlimit="10" stroke-width="5"/>
  <line x1="46.67" y1="387.42" x2="106.22" y2="403.38" fill="none" stroke="#606060" stroke-miterlimit="10" stroke-width="5"/>
  <line x1="37.55" y1="428.54" x2="98.27" y2="439.25" fill="none" stroke="#606060" stroke-miterlimit="10" stroke-width="5"/>
  <line x1="32.05" y1="470.3" x2="93.47" y2="475.67" fill="none" stroke="#606060" stroke-miterlimit="10" stroke-width="5"/>
  <line x1="32.05" y1="554.45" x2="93.47" y2="549.08" fill="none" stroke="#606060" stroke-miterlimit="10" stroke-width="5"/>
  <line x1="37.55" y1="596.21" x2="98.27" y2="585.5" fill="none" stroke="#606060" stroke-miterlimit="10" stroke-width="5"/>
  <line x1="46.67" y1="637.33" x2="106.22" y2="621.37" fill="none" stroke="#606060" stroke-miterlimit="10" stroke-width="5"/>
  <line x1="59.33" y1="677.49" x2="117.27" y2="656.41" fill="none" stroke="#606060" stroke-miterlimit="10" stroke-width="5"/>
  <line x1="75.45" y1="716.41" x2="131.33" y2="690.35" fill="none" stroke="#606060" stroke-miterlimit="10" stroke-width="5"/>
  <line x1="94.9" y1="753.76" x2="148.29" y2="722.94" fill="none" stroke="#606060" stroke-miterlimit="10" stroke-width="5"/>
  <line x1="117.52" y1="789.28" x2="168.03" y2="753.92" fill="none" stroke="#606060" stroke-miterlimit="10" stroke-width="5"/>
  <line x1="143.16" y1="822.7" x2="190.39" y2="783.07" fill="none" stroke="#606060" stroke-miterlimit="10" stroke-width="5"/>
  <line x1="171.62" y1="853.75" x2="215.21" y2="810.15" fill="none" stroke="#606060" stroke-miterlimit="10" stroke-width="5"/>
  <line x1="202.67" y1="882.2" x2="242.3" y2="834.97" fill="none" stroke="#606060" stroke-miterlimit="10" stroke-width="5"/>
  <line x1="236.08" y1="907.84" x2="271.45" y2="857.34" fill="none" stroke="#606060" stroke-miterlimit="10" stroke-width="5"/>
  <line x1="271.6" y1="930.47" x2="302.43" y2="877.08" fill="none" stroke="#606060" stroke-miterlimit="10" stroke-width="5"/>
  <line x1="308.96" y1="949.92" x2="335.02" y2="894.04" fill="none" stroke="#606060" stroke-miterlimit="10" stroke-width="5"/>
  <line x1="347.87" y1="966.04" x2="368.96" y2="908.1" fill="none" stroke="#606060" stroke-miterlimit="10" stroke-width="5"/>
  <line x1="388.04" y1="978.7" x2="404" y2="919.14" fill="none" stroke="#606060" stroke-miterlimit="10" stroke-width="5"/>
  <line x1="429.16" y1="987.82" x2="439.86" y2="927.1" fill="none" stroke="#606060" stroke-miterlimit="10" stroke-width="5"/>
  <line x1="470.91" y1="993.31" x2="476.29" y2="931.89" fill="none" stroke="#606060" stroke-miterlimit="10" stroke-width="5"/>
  <line x1="555.07" y1="993.31" x2="549.69" y2="931.89" fill="none" stroke="#606060" stroke-miterlimit="10" stroke-width="5"/>
  <line x1="596.82" y1="987.82" x2="586.12" y2="927.1" fill="none" stroke="#606060" stroke-miterlimit="10" stroke-width="5"/>
  <line x1="637.94" y1="978.7" x2="621.98" y2="919.14" fill="none" stroke="#606060" stroke-miterlimit="10" stroke-width="5"/>
  <line x1="678.11" y1="966.04" x2="657.02" y2="908.1" fill="none" stroke="#606060" stroke-miterlimit="10" stroke-width="5"/>
  <line x1="717.02" y1="949.92" x2="690.96" y2="894.04" fill="none" stroke="#606060" stroke-miterlimit="10" stroke-width="5"/>
  <line x1="754.38" y1="930.47" x2="723.55" y2="877.08" fill="none" stroke="#606060" stroke-miterlimit="10" stroke-width="5"/>
  <line x1="789.9" y1="907.84" x2="754.53" y2="857.34" fill="none" stroke="#606060" stroke-miterlimit="10" stroke-width="5"/>
  <line x1="823.31" y1="882.2" x2="783.68" y2="834.97" fill="none" stroke="#606060" stroke-miterlimit="10" stroke-width="5"/>
  <line x1="854.36" y1="853.75" x2="810.77" y2="810.15" fill="none" stroke="#606060" stroke-miterlimit="10" stroke-width="5"/>
  <line x1="882.82" y1="822.7" x2="835.59" y2="783.07" fill="none" stroke="#606060" stroke-miterlimit="10" stroke-width="5"/>
  <line x1="908.46" y1="789.28" x2="857.95" y2="753.92" fill="none" stroke="#606060" stroke-miterlimit="10" stroke-width="5"/>
  <line x1="931.09" y1="753.76" x2="877.69" y2="722.94" fill="none" stroke="#606060" stroke-miterlimit="10" stroke-width="5"/>
  <line x1="950.53" y1="716.41" x2="894.65" y2="690.35" fill="none" stroke="#606060" stroke-miterlimit="10" stroke-width="5"/>
  <line x1="966.65" y1="677.49" x2="908.71" y2="656.41" fill="none" stroke="#606060" stroke-miterlimit="10" stroke-width="5"/>
  <line x1="979.31" y1="637.33" x2="919.76" y2="621.37" fill="none" stroke="#606060" stroke-miterlimit="10" stroke-width="5"/>
  <line x1="988.43" y1="596.21" x2="927.71" y2="585.5" fill="none" stroke="#606060" stroke-miterlimit="10" stroke-width="5"/>
  <line x1="993.93" y1="554.45" x2="932.51" y2="549.08" fill="none" stroke="#606060" stroke-miterlimit="10" stroke-width="5"/>
  <line x1="993.93" y1="470.3" x2="932.51" y2="475.67" fill="none" stroke="#606060" stroke-miterlimit="10" stroke-width="5"/>
  <line x1="988.43" y1="428.54" x2="927.71" y2="439.25" fill="none" stroke="#606060" stroke-miterlimit="10" stroke-width="5"/>
  <line x1="979.31" y1="387.42" x2="919.76" y2="403.38" fill="none" stroke="#606060" stroke-miterlimit="10" stroke-width="5"/>
  <line x1="966.65" y1="347.26" x2="908.71" y2="368.34" fill="none" stroke="#606060" stroke-miterlimit="10" stroke-width="5"/>
  <line x1="950.53" y1="308.35" x2="894.65" y2="334.4" fill="none" stroke="#606060" stroke-miterlimit="10" stroke-width="5"/>
  <line x1="931.09" y1="270.99" x2="877.69" y2="301.82" fill="none" stroke="#606060" stroke-miterlimit="10" stroke-width="5"/>
  <line x1="908.46" y1="235.47" x2="857.95" y2="270.83" fill="none" stroke="#606060" stroke-miterlimit="10" stroke-width="5"/>
  <line x1="882.82" y1="202.05" x2="835.59" y2="241.69" fill="none" stroke="#606060" stroke-miterlimit="10" stroke-width="5"/>
  <line x1="854.36" y1="171" x2="810.77" y2="214.6" fill="none" stroke="#606060" stroke-miterlimit="10" stroke-width="5"/>
  <line x1="823.31" y1="142.55" x2="783.68" y2="189.78" fill="none" stroke="#606060" stroke-miterlimit="10" stroke-width="5"/>
  <line x1="789.9" y1="116.91" x2="754.53" y2="167.42" fill="none" stroke="#606060" stroke-miterlimit="10" stroke-width="5"/>
  <line x1="754.38" y1="94.28" x2="723.55" y2="147.68" fill="none" stroke="#606060" stroke-miterlimit="10" stroke-width="5"/>
  <line x1="717.02" y1="74.83" x2="690.96" y2="130.71" fill="none" stroke="#606060" stroke-miterlimit="10" stroke-width="5"/>
  <line x1="678.11" y1="58.72" x2="657.02" y2="116.65" fill="none" stroke="#606060" stroke-miterlimit="10" stroke-width="5"/>
  <line x1="637.94" y1="46.05" x2="621.98" y2="105.61" fill="none" stroke="#606060" stroke-miterlimit="10" stroke-width="5"/>
  <line x1="596.82" y1="36.94" x2="586.12" y2="97.66" fill="none" stroke="#606060" stroke-miterlimit="10" stroke-width="5"/>
  <line x1="555.07" y1="31.44" x2="549.69" y2="92.86" fill="none" stroke="#606060" stroke-miterlimit="10" stroke-width="5"/>
  <path d="M683.31,353.12l-117.15,147.51c80.57,7.16,161.13,14.31,241.7,21.47-80.57,7.16-161.13,14.31-241.7,21.47l117.15,147.51-147.51-117.15-21.47,187.14-21.47-187.14-147.51,117.15,117.15-147.51c-80.57-7.16-161.13-14.31-241.7-21.47,80.57-7.16,161.13-14.31,241.7-21.47l-117.15-147.51,147.51,117.15,21.47-187.14,21.47,187.14,147.51-117.15Z" fill="#99999a"/>
  <g>
    <path d="M514.34,233.86c17.98,96.08,35.96,192.16,53.95,288.24h-107.89c17.98-96.08,35.96-192.16,53.95-288.24Z" fill="#ee3937" stroke="#231f20" stroke-linecap="round" stroke-linejoin="round" stroke-width="8"/>
    <path d="M514.34,792.35c-17.98-90.09-35.96-180.17-53.95-270.26h107.89c-17.98,90.09-35.96,180.17-53.95,270.26Z" fill="#4361ab" stroke="#231f20" stroke-linecap="round" stroke-linejoin="round" stroke-width="8"/>
    <circle cx="514.34" cy="522.1" r="53.95" fill="#fff" stroke="#231f20" stroke-miterlimit="10" stroke-width="8"/>
  </g>
  <path d="M572.58,889.23c0,3.71-1.39,7.55-4.18,11.51-3.91,5.55-9.62,8.98-17.12,10.31-5.03.89-9.27,1.34-12.72,1.34-10.29,0-16.06-3.31-17.29-9.92-.37-2.07-.72-5.91-1.04-11.51-.23-3.97-.86-6.91-1.9-8.84-1.41-2.73-4.08-5.03-8.02-6.9-.23.69-.34,2.69-.34,5.99,0,8.37,1.52,17.7,4.57,27.99l-20.35.13c-9.4.09-14.27.19-14.62.3-.03-.14-.06-.32-.09-.52,0-3.19.5-4.87,1.51-5.04,1.67-.23,3.33-.46,5-.69,1.67-.52,2.56-1.78,2.67-3.79.75-10.81,1.55-18.99,2.41-24.54,1.55-9.69,4.02-18.67,7.42-26.95-.6.12-1.47.17-2.59.17-3.05,0-5.46-.82-7.24-2.46l2.76-10.18c5.06,3.94,10.29,6.71,15.7,8.32,4.54,1.35,9.82,2.03,15.83,2.03,2.59,0,6.82-.19,12.7-.58,5.88-.39,9.48-.58,10.8-.58,6.35,0,11.14,1.51,14.36,4.53,2.73,2.56,4.1,5.94,4.1,10.13,0,6.33-3.36,11.33-10.09,15.01-5.89,3.25-13.14,4.87-21.73,4.87-2.82,0-5.81-.17-8.97-.52,6.44,1.35,10.97,2.98,13.58,4.87,2.13,1.58,3.19,3.56,3.19,5.95,0,.98-.24,2.65-.71,5.02-.47,2.37-.71,4.23-.71,5.58,0,3.54,2.05,5.3,6.17,5.3,3.28,0,6.97-.8,11.08-2.42,4-1.55,5.99-2.86,5.99-3.92,0-.37-.3-.56-.91-.56-.4,0-1.83.28-4.27.84s-4.44.84-5.99.84c-3.85,0-6.28-1.25-7.29-3.75-.14-.32-.21-.7-.21-1.16,0-1.93,1.22-4.02,3.67-6.3,2.7-2.53,6.28-4.64,10.74-6.34,2.16-.83,4.12-1.25,5.91-1.25,2.62,0,4.7.89,6.25,2.67,1.32,1.5,1.98,3.16,1.98,5ZM548.48,865.46c0-2.42-2.57-4.75-7.7-7.01-5.13-2.26-10.49-3.38-16.06-3.38-4.63,0-8.65.55-12.08,1.66-3.42,1.11-5.13,2.47-5.13,4.08,0,2.79,3.46,5.19,10.39,7.2,5.58,1.61,10.52,2.42,14.83,2.42s7.83-.39,10.74-1.17c3.33-.92,5-2.18,5-3.79Z" fill="#fff"/>
  <path d="M550.76,152.45c0,3.05-1.04,5.25-3.13,6.62-2.08,1.37-5.48,2.05-10.2,2.05-5.63,0-10.39-1.02-14.27-3.06-3.62-1.93-5.43-4.14-5.43-6.64s1.18-4.71,3.54-6.73c2.47-2.13,5.45-3.19,8.93-3.19.55,0,1.29.01,2.24.04.95.03,1.52.04,1.72.04h.69c.6-.17.9-.46.9-.86,0-1.01-1.09-2.03-3.28-3.06-2.62-1.26-5.88-1.9-9.79-1.9-5.61,0-10.29,1.81-14.06,5.43-4.46,4.25-6.68,10.36-6.68,18.33,0,2.24.2,4.72.6,7.42,1.84,12.02,3.49,20.07,4.96,24.15,1.78,4.97,4.31,7.46,7.59,7.46,4.94,0,7.42-2.64,7.42-7.93,0-2.36-.59-6.04-1.77-11.04-.49-2.04-1.54-3.32-3.15-3.84-1.7-.29-3.39-.57-5.09-.86-.63-.11-1.05-.98-1.25-2.59-.12-1.24-.1-2.31.04-3.23.55.29,12.43.62,35.66.99-3.94,6.18-5.91,13.45-5.91,21.82,0,1.52.09,2.63.26,3.32-.95,1.12-3.21,2.5-6.77,4.14-5.26,2.44-11.66,4.43-19.19,5.95-3.51.72-6.68,1.08-9.53,1.08-15.55,0-23.33-10.08-23.33-30.23,0-30.33,11.54-45.5,34.63-45.5,19.66,0,30.71,5.75,33.12,17.25.35,1.7.52,3.22.52,4.57Z" fill="#fff"/>
  <path d="M908.33,517.59c0,2.7-.53,6.11-1.6,10.22-1.41,5.49-5.29,9.83-11.64,13.02-6.61,3.33-15.15,5-25.62,5s-18.39-2-24.37-5.99c-5-3.31-7.5-7.09-7.5-11.34,0-2.73,1.05-5.07,3.15-7.03,2.39-2.24,5.84-3.67,10.35-4.27,2.24-.29,4.54-.43,6.9-.43,4.86,0,8.7.71,11.51,2.11,2.73,1.35,4.1,3.15,4.1,5.39,0,3.39-1.81,6.25-5.43,8.58-1.72,1.12-4.67,2.42-8.84,3.88-1.61.55-2.42,1.05-2.42,1.51,0,1.41,2.98,2.11,8.93,2.11,4.69,0,8.65-.68,11.9-2.03,4.02-1.67,6.04-4.08,6.04-7.25,0-.46-.06-.99-.17-1.6-1.64-8.39-2.86-13.41-3.67-15.05-1.73-3.39-5-5.09-9.83-5.09-1.26,0-3.43.17-6.49.5-3.06.33-5.27.5-6.62.5-9.29,0-13.93-3.75-13.93-11.26,0-2.39.47-5.29,1.42-8.71,1.26-4.66,4.1-8.37,8.5-11.13,5.26-3.31,12.43-4.96,21.52-4.96s16.63,1.47,21.86,4.4c4.74,2.67,7.12,6.07,7.12,10.18,0,6.12-4.89,9.19-14.66,9.19-4.77,0-8.83-.79-12.16-2.37-3.13-1.47-4.7-3.15-4.7-5.05,0-2.73,2.08-4.89,6.25-6.47,1.58-.52,3.18-1.03,4.79-1.55,1.47-.55,2.2-1.11,2.2-1.68,0-.78-1.01-1.46-3.04-2.05-2.03-.59-4.32-.88-6.88-.88-3.16,0-5.75.5-7.76,1.51-2.42,1.21-3.62,3-3.62,5.39,0,1.12.27,2.36.82,3.71l2.33,7.76c.89,2.76,2.21,4.74,3.97,5.95,2.3,1.58,5.88,2.37,10.74,2.37.43,0,1.8-.05,4.1-.15,2.3-.1,4.03-.15,5.18-.15,5.52,0,9.6.79,12.25,2.37,3.36,2.04,5.04,5.65,5.04,10.82Z" fill="#fff"/>
  <path d="M188.07,519.44c0,4.34-.66,8.58-1.98,12.72-.95,2.99-2.26,5.89-3.92,8.71-.92,1.44-1.83,2.89-2.72,4.36-.23.37-.62.52-1.16.43-10.61-1.61-20.7-2.42-30.27-2.42-12.65,0-20.25,1.74-22.81,5.22l-1.94-10.87c1.55-1.03,3.55-1.55,5.99-1.55,1.24,0,2.66.17,4.27.52-3.97-9.92-5.95-23.57-5.95-40.97,0-1.29.04-3.27.11-5.93.07-2.66.11-4.69.11-6.1,0-2.44-1.31-3.91-3.92-4.4-.95-.11-2.41-.36-4.4-.73-.78-.2-1.16-1.58-1.16-4.14,0-.66.06-1.28.17-1.85.55.26,13.48,1.55,38.81,3.88-2.44,4.97-4.67,11.44-6.68,19.41-2.16,8.42-3.23,15.35-3.23,20.79,0,13.02,4.97,19.54,14.92,19.54,7.22,0,12.65-1.37,16.3-4.1,2.67-1.98,4.01-4.21,4.01-6.68,0-1.29-.32-1.94-.95-1.94-.14,0-.29.06-.43.17-4.4,3.05-8.91,4.57-13.54,4.57-4.23,0-7.6-1.44-10.13-4.31-1.12-1.26-1.68-2.62-1.68-4.05,0-2.36,1.36-4.66,4.1-6.9,2.64-2.21,6.11-3.98,10.39-5.3,3.39-1.06,6.18-1.6,8.37-1.6,6.24,0,9.36,4.51,9.36,13.54Z" fill="#fff"/>
  <line x1="30.3" y1="512.38" x2="91.96" y2="512.38" fill="none" stroke="#fff" stroke-linecap="square" stroke-miterlimit="10" stroke-width="10"/>
  <line x1="513.07" y1="995.15" x2="513.07" y2="933.49" fill="none" stroke="#fff" stroke-miterlimit="10" stroke-width="10"/>
  <line x1="995.85" y1="512.38" x2="934.19" y2="512.38" fill="none" stroke="#fff" stroke-linecap="square" stroke-miterlimit="10" stroke-width="10"/>
  <line x1="513.07" y1="29.6" x2="513.07" y2="91.26" fill="none" stroke="#fff" stroke-linecap="square" stroke-linejoin="round" stroke-width="10"/>
  <path d="M510.93,30.8c266.17,0,481.94,215.77,481.94,481.94s-215.77,481.94-481.94,481.94S28.98,778.91,28.98,512.74,244.76,30.8,510.93,30.8M510.93,15.8c-67.08,0-132.16,13.14-193.44,39.06-59.18,25.03-112.32,60.86-157.95,106.49-45.63,45.63-81.46,98.78-106.49,157.95-25.92,61.27-39.06,126.36-39.06,193.44s13.14,132.16,39.06,193.44c25.03,59.18,60.86,112.32,106.49,157.95,45.63,45.63,98.78,81.46,157.95,106.49,61.27,25.92,126.36,39.06,193.44,39.06s132.16-13.14,193.44-39.06c59.18-25.03,112.32-60.86,157.95-106.49,45.63-45.63,81.46-98.78,106.49-157.95,25.92-61.27,39.06-126.36,39.06-193.44s-13.14-132.16-39.06-193.44c-25.03-59.18-60.86-112.32-106.49-157.95-45.63-45.63-98.78-81.46-157.95-106.49-61.27-25.92-126.36-39.06-193.44-39.06h0Z" fill="#fff"/>
</svg>