<?xml version="1.0" encoding="UTF-8"?>
<svg id="Layer_1" data-name="Layer 1" xmlns="http://www.w3.org/2000/svg" width="1024" height="1024" viewBox="0 0 1024 1024">
  <path d="M95.34,533.56s-1.58-199.45,169.27-305.55c60.99-37.87,143.95-63.85,256.79-64.61,428.96-2.9,403.95,373.18,405.42,370.24,1.47-2.94,203.16,431.64-396.69,450.58C-41.33,1002.26,55.67,561.46,95.34,533.56Z" fill="#69ad64" stroke="#030102" stroke-linecap="round" stroke-linejoin="round" stroke-width="2"/>
  <path d="M799.21,47.59s-36.16,71.54-28.38,174.6l-98.56-43.28S731.64-.9,799.21,47.59Z" fill="#f3ebe2" stroke="#030102" stroke-linejoin="round" stroke-width="10"/>
  <path d="M239.2,47.53s9.04,17.89,17.1,48.66c1.43,5.46,5.82,22.24,8.88,45.1,2.68,20.01,4.76,47.6,2.36,80.84,32.86-14.42,65.71-28.84,98.57-43.26-7.64-25.34-17.07-45.27-24.9-59.57-15.28-27.91-44.87-81.95-80.39-80.01-9.72.53-17.32,5.12-21.62,8.24Z" fill="#f3ebe2" stroke="#030102" stroke-linejoin="round" stroke-width="10"/>
  <g>
    <ellipse cx="347.32" cy="487.67" rx="42.6" ry="63.17"/>
    <ellipse cx="365.01" cy="465.64" rx="8.08" ry="11.02" fill="#fff"/>
  </g>
  <g>
    <ellipse cx="699.48" cy="487.71" rx="42.6" ry="63.17"/>
    <ellipse cx="721.94" cy="465.67" rx="8.08" ry="11.02" fill="#fff"/>
  </g>
  <path d="M105.51,807.04s-19.87-105.84,177.9-117.39c0,0,25.9,57.8,180.04,60.61,29.61.54,62.3,3.26,102.24-1.44,0,0,29.62.95,73.98-3.71,31.76-3.34,64.78-6.18,128.91-29.87,0,0,208.08-33.64,168.4,73.23,0,0-10.44,95.32-160.11,152.15-47.58,18.06-114.58,26.01-192.85,33.84-104.48,10.46-222.74,2.33-292.34-19.13-146.56-45.19-186.18-148.3-186.18-148.3Z" fill="#fff"/>
  <path d="M95.34,533.56s-1.58-199.45,169.27-305.55c60.99-37.87,143.95-63.85,256.79-64.61,428.96-2.9,403.95,373.18,405.42,370.24,1.47-2.94,203.16,431.64-396.69,450.58C-41.33,1002.26,55.67,561.46,95.34,533.56Z" fill="none" stroke="#030102" stroke-linecap="round" stroke-linejoin="round" stroke-width="12"/>
  <ellipse cx="450.91" cy="636.07" rx="18.18" ry="34.16" transform="translate(-327.54 679.85) rotate(-57.89)"/>
  <ellipse cx="596.48" cy="633.69" rx="34.16" ry="18.18" transform="translate(-268.96 542.22) rotate(-40.7)"/>
  <ellipse cx="420.44" cy="246.25" rx="43.28" ry="23.99" transform="translate(-15.27 28.14) rotate(-3.77)" fill="#508a49"/>
  <path d="M268.42,168.7s19.72-64.25,74.57-43.67" fill="#f3ebe2" stroke="#030102" stroke-linecap="round" stroke-linejoin="round" stroke-width="8"/>
  <path d="M261.46,103.33s13.89-31.89,52.54-21.67" fill="none" stroke="#030102" stroke-linecap="round" stroke-linejoin="round" stroke-width="8"/>
  <path d="M769.54,168.73s-19.7-64.26-74.56-43.69" fill="#f3ebe2" stroke="#030102" stroke-linecap="round" stroke-linejoin="round" stroke-width="8"/>
  <path d="M776.51,103.36s-13.88-31.89-52.53-21.68" fill="none" stroke="#030102" stroke-linecap="round" stroke-linejoin="round" stroke-width="8"/>
  <g>
    <path d="M275.73,694.47c56.53-44.67,116.55,14.75,258.44,12.65,133.4-1.97,198.93-56.44,247.7-12.91,29.31,26.17,29.98,67.59,30.11,76.08,1.37,85.65-98.76,138.04-112.75,145.36-47.59,24.9-88.44,25.73-158.96,27.17-64.15,1.31-96.9,1.28-129.47-6.46-37.71-8.96-65.93-22.92-73.6-26.82-11.61-5.9-24.27-13.25-38.85-23.4-28.53-19.86-57.77-48.62-62.64-89.64-4.08-34.39,8.96-77.48,40.03-102.03Z" fill="#f96b6b"/>
    <path d="M301.62,889.36c5.3,3.46,110.93,55.42,219.07,56.35,103.75.89,210.31-49.18,210.31-49.18-200.8-227.65-433.37-9.91-433.37-9.91" fill="#ffa4a4"/>
    <path d="M342.75,684.14s16.75,95.67,55.3,102.94c0,0,27.04-10.75,39.58-82.98l-94.88-19.96Z" fill="#fff0e1" stroke="#000" stroke-linecap="round" stroke-linejoin="round" stroke-width="12"/>
    <path d="M735.89,678.21s-17,95.63-55.57,102.79c0,0-27.01-10.82-39.37-83.08l94.93-19.71Z" fill="#fff0e1" stroke="#000" stroke-linecap="round" stroke-linejoin="round" stroke-width="12"/>
    <path d="M298.34,886.13s96.78-95.22,225.15-93.42c128.36,1.8,207.52,103.81,207.52,103.81" fill="none" stroke="#000" stroke-linecap="round" stroke-linejoin="round" stroke-width="12"/>
    <path d="M275.73,694.47c56.53-44.67,116.55,14.75,258.44,12.65,133.4-1.97,198.93-56.44,247.7-12.91,29.31,26.17,29.98,67.59,30.11,76.08,1.37,85.65-98.76,138.04-112.75,145.36-47.59,24.9-88.44,25.73-158.96,27.17-64.15,1.31-96.9,1.28-129.47-6.46-37.71-8.96-65.93-22.92-73.6-26.82-11.61-5.9-24.27-13.25-38.85-23.4-28.53-19.86-57.77-48.62-62.64-89.64-4.08-34.39,8.96-77.48,40.03-102.03Z" fill="none" stroke="#000" stroke-miterlimit="10" stroke-width="12"/>
  </g>
</svg>