<?xml version="1.0" encoding="UTF-8"?>
<svg id="Layer_1" data-name="Layer 1" xmlns="http://www.w3.org/2000/svg" width="1024" height="1024" viewBox="0 0 1024 1024">
  <path d="M568.52,20.33s-6.59,112.21-12.28,133.14l-89.58-4.58s29.3-124.93,9.09-128.64,92.78.08,92.78.08Z" fill="#f72f5f"/>
  <path d="M719.19,66.89s-39.13,75.56-44.83,96.49l-55.25-9.91,44.97-120.93,55.11,34.35Z" fill="#f72f5f"/>
  <path d="M239.2,47.53s9.04,17.89,17.1,48.66c1.43,5.46,5.82,22.24,8.88,45.1,2.68,20.01,4.76,47.6,2.36,80.84,32.86-14.42,65.71-28.84,98.57-43.26-7.64-25.34-17.07-45.27-24.9-59.57-15.28-27.91-44.87-81.95-80.39-80.01-9.72.53-17.32,5.12-21.62,8.24Z" fill="#f3ebe2" stroke="#030102" stroke-linejoin="round" stroke-width="10"/>
  <path d="M268.42,168.7s19.72-64.25,74.57-43.67" fill="#f3ebe2" stroke="#030102" stroke-linecap="round" stroke-linejoin="round" stroke-width="8"/>
  <path d="M261.46,103.33s13.89-31.89,52.54-21.67" fill="none" stroke="#030102" stroke-linecap="round" stroke-linejoin="round" stroke-width="8"/>
  <path d="M408.67,18.62s.84,118.76-4.85,139.69l-71.89,15.11s11.64-121.97-8.57-125.68,85.31-29.11,85.31-29.11Z" fill="#f72f5f"/>
  <path d="M95.34,533.56s-1.58-199.45,169.27-305.55c60.99-37.87,143.95-63.85,256.79-64.61,428.96-2.9,403.95,373.18,405.42,370.24,1.47-2.94,203.16,431.64-396.69,450.58C-41.33,1002.26,55.67,561.46,95.34,533.56Z" fill="#69ad64" stroke="#030102" stroke-linecap="round" stroke-linejoin="round" stroke-width="2"/>
  <path d="M799.21,47.59s-36.16,71.54-28.38,174.6l-98.56-43.28S731.64-.9,799.21,47.59Z" fill="#f3ebe2" stroke="#030102" stroke-linejoin="round" stroke-width="10"/>
  <g>
    <ellipse cx="347.32" cy="487.67" rx="42.6" ry="63.17"/>
    <ellipse cx="365.01" cy="465.64" rx="8.08" ry="11.02" fill="#fff"/>
  </g>
  <g>
    <ellipse cx="699.48" cy="487.71" rx="42.6" ry="63.17"/>
    <ellipse cx="721.94" cy="465.67" rx="8.08" ry="11.02" fill="#fff"/>
  </g>
  <path d="M105.51,807.04s-19.87-105.84,177.9-117.39c0,0,25.9,57.8,180.04,60.61,29.61.54,62.3,3.26,102.24-1.44,0,0,29.62.95,73.98-3.71,31.76-3.34,64.78-6.18,128.91-29.87,0,0,208.08-33.64,168.4,73.23,0,0-10.44,95.32-160.11,152.15-47.58,18.06-114.58,26.01-192.85,33.84-104.48,10.46-222.74,2.33-292.34-19.13-146.56-45.19-186.18-148.3-186.18-148.3Z" fill="#fff"/>
  <path d="M95.34,533.56s-1.58-199.45,169.27-305.55c60.99-37.87,143.95-63.85,256.79-64.61,428.96-2.9,403.95,373.18,405.42,370.24,1.47-2.94,203.16,431.64-396.69,450.58C-41.33,1002.26,55.67,561.46,95.34,533.56Z" fill="none" stroke="#030102" stroke-linecap="round" stroke-linejoin="round" stroke-width="12"/>
  <ellipse cx="450.91" cy="636.07" rx="18.18" ry="34.16" transform="translate(-327.54 679.85) rotate(-57.89)"/>
  <ellipse cx="596.48" cy="633.69" rx="34.16" ry="18.18" transform="translate(-268.96 542.22) rotate(-40.7)"/>
  <path d="M769.54,168.73s-19.7-64.26-74.56-43.69" fill="#f3ebe2" stroke="#030102" stroke-linecap="round" stroke-linejoin="round" stroke-width="8"/>
  <path d="M776.51,103.36s-13.88-31.89-52.53-21.68" fill="none" stroke="#030102" stroke-linecap="round" stroke-linejoin="round" stroke-width="8"/>
  <path d="M283.41,689.65s101.9,124.84,485.18,25.59" fill="none" stroke="#000" stroke-linecap="round" stroke-miterlimit="10" stroke-width="12"/>
  <path d="M336.96,730.94s16.15,95.77,54.65,103.28c0,0,27.11-10.58,40.1-82.73l-94.75-20.55Z" fill="#fff0e1" stroke="#000" stroke-linecap="round" stroke-linejoin="round" stroke-width="12"/>
  <path d="M730.62,725.47s-17,95.63-55.57,102.79c0,0-27.01-10.82-39.37-83.08l94.93-19.71Z" fill="#fff0e1" stroke="#000" stroke-linecap="round" stroke-linejoin="round" stroke-width="12"/>
  <path d="M354.88,278.72c-.87-13.22,17.76-25.21,41.61-26.78,23.85-1.57,43.89,7.87,44.76,21.09" fill="#508a49"/>
  <g>
    <path d="M331.93,173.42l-8.99,67.13s461.68,92.97,379.49-18.61l-.45-48.52c-2.03-.19-162.8-23.19-159.4-22.78,92.64,11.02-169.11-4.29-210.66,22.78Z" fill="#15159e"/>
    <path d="M505,257.13s83.55-6.21,149.77-33.02,40.25-28.97,101.89-28.4,95.26,40.52,104.94,61.81-8.15,37.53-32.6,35.52-47.38-15.33-97.81-17.84-164.9,23.98-204.2,23.98-141.7-8.74-219.65-23.98-86.6,7.17-114.11,3.35-26.89-6.8-35.1-26.2,10.64-53.53,91.14-45.89,180.34,53.93,255.74,50.66Z" fill="#15159e" stroke="#000" stroke-miterlimit="10" stroke-width="12"/>
    <path d="M337.96,168.73s205.26-43.68,357.01,4.69" fill="none" stroke="#000" stroke-linecap="round" stroke-linejoin="round" stroke-width="12"/>
    <path d="M327.8,221.94s14.88-128.01-3.46-165.71S473.88,10.91,510.33,16c33.59,4.7,126.26-10.8,198.5,39.23,10.85,7.51,8.32,24.29,5.03,37.07-11.52,44.69-19.47,96.91-10.21,109.02" fill="none" stroke="#000" stroke-linecap="round" stroke-linejoin="round" stroke-width="12"/>
  </g>
  <path d="M516.95,166.63l8.79,20.28,22.01,2.1c4.7.45,6.6,6.29,3.06,9.42l-16.57,14.63,4.81,21.58c1.03,4.61-3.95,8.22-8.01,5.82l-19.04-11.24-19.04,11.24c-4.07,2.4-9.04-1.21-8.01-5.82l4.81-21.58-16.57-14.63c-3.54-3.13-1.64-8.97,3.06-9.42l22.01-2.1,8.79-20.28c1.88-4.33,8.03-4.33,9.9,0Z" fill="#fff"/>
</svg>